<svg xmlns="http://www.w3.org/2000/svg" viewBox="0 0 965.38 842.2"><defs><style>.cls-1{fill:#b1b0fc;}.cls-1,.cls-10,.cls-12,.cls-13,.cls-14,.cls-19,.cls-2,.cls-20,.cls-23,.cls-4,.cls-5,.cls-6,.cls-7,.cls-8,.cls-9{fill-rule:evenodd;}.cls-2,.cls-3{fill:#e8ccca;}.cls-4{fill:#7976c9;}.cls-5{fill:#db9094;}.cls-6{fill:#3f378d;}.cls-7{fill:#8380d7;}.cls-8{fill:#eba6a9;}.cls-9{fill:#0b233f;}.cls-10,.cls-11{fill:#49546a;}.cls-12{fill:#a6a4f5;}.cls-13{fill:#fff;}.cls-14{fill:#e6e6e6;}.cls-15{fill:#00b1fd;}.cls-16{fill:#f06a60;}.cls-17{fill:#eab436;}.cls-18{fill:#79991c;}.cls-19{fill:#fafafa;}.cls-20,.cls-21{fill:#e1e2ff;}.cls-22{fill:#b3b3b3;}.cls-23{fill:#e6ecff;}</style></defs><g id="Layer_2" data-name="Layer 2"><g id="Layer_1-2" data-name="Layer 1"><path class="cls-1" d="M208.74,525.62c-5.17-45,8.78-92.87,60.48-123.67,47.59-28.34,49.62-36.74,50.22-140.39,1.15-198.17,277.9-237.2,466.64-164.91,248.2,95.07,208.39,210.85,63.57,345.72-124.33,115.79,120.62,324-87.16,379.9C664.63,848.6,419.71,844.32,317.92,835c-81.25-7.41-68.74-75.75-63.3-139.24,8.88-103.54-35.54-80.13-45.88-170.17Z"/><path class="cls-2" d="M368.89,609.14H532.07a12.5,12.5,0,0,1,12.48,12.47V624a12.5,12.5,0,0,1-12.48,12.47H353.13c-4.58,0-9.37-1.88-10.81-6.23L286.17,459.82c-2.15-6.53-1.39-13.61,4.56-17l2-1.17c6-3.44,15-2,17,4.56L358.08,602.9c1.35,4.37,6.23,6.24,10.81,6.24Z"/><path class="cls-3" d="M570.6,525.8V796.51H557.41V525.8Zm107.86,0V796.51H665.27V525.8Z"/><path class="cls-4" d="M462.76,489.84l4.94,4.53L480,464.85,458.33,447c.24,3.83-.19,8.7-2.21,16.25l13.37,10.41-6.73,16.22Z"/><path class="cls-5" d="M480,464.85l12.41,10.84c8.59,7.49,66.07,8.71,78.7,8.82,12.83.12,17.91,4.9,17.91,16.55h-1.88c-2.32-5.35-7.5-7.7-16.43-7.78-12.64-.11-80.17-1.33-88.76-8.82l-7.53-6.58,5.58-13Z"/><path class="cls-6" d="M349.05,547.52c19,0,105.72,12.28,157.72,24,41.32,9.3,39.51,20.93,42.63,42l8,135.33H533.69c-6.53-43.06-24.49-86.12-31-129.18-74.37,0-173,25.86-153.63-72.17Z"/><path class="cls-7" d="M349.05,547.52C384.38,443,372.31,414,431,390.56c12.31,2.85,21.68,7.89,28.55,14.62-10.47,39.07,4.12,29.85-3.43,58l13.37,10.41-12.25,29.52L445.77,495c-9.61-7.45-15.51,45.78-21.53,61.4-31.93-4.39-43.26-4.52-75.19-8.92Z"/><path class="cls-8" d="M431,390.56c9.13,5.27,19.42,9.35,28.55,14.62l8.24-14.26c18.09,4.84,32.56-7.77,38.19-17.52,9.14,5.27,4.89-7.14,4.25-9.54a61.9,61.9,0,0,0,1.63-8.11l-.15-.1c-.34.13-.36-.1-.7,0,0,0-4.85-7.57-5.28-8.32-.54,2-1.07,4-1.61,6-10.66-1.56-10.75-8.24-13.74-11.23-3.37,12.6-5.44,16.72-22.15,18.35l.08.53-.1-.53c-2.27.22-4.81.39-7.65.5,6.06-11.1,1.95-16.4-4.29-19.46-3.35,1.93-8.19,27.16-16.72,37.88L431,390.56Z"/><path class="cls-5" d="M465.35,395.14c.19-.33,2.37-4.11,2.44-4.22-4-11.32-5.77-15.94-7.71-27.78,0,12.22,4,27.14,5.27,32Z"/><path class="cls-9" d="M456.46,304.8c-51-73.78-73.39,36.11-108.62,45.55,69,32,74.32-64,98.43-39.89-24.06,13.9-22.46,40-6.72,68.94,16.08-19.95,19-28.41,16.72-32.34,5,2.46,6.36,10.33,4.29,13.92,25.34-.7,27.08-5.42,29.82-18.85,3,3,3.08,9.67,13.74,11.23.54-2,1.07-4,1.61-6l5.06,8.77c30.6-17.67-9.38-70.29-54.33-51.33Z"/><path class="cls-8" d="M469.49,473.62l12.41,10.84c8.59,7.49,76.12,8.71,88.76,8.82,12.82.12,17.91,4.9,17.91,16.55H573c0-4.31-13.94-4.16-15.8,0H500.33c-17.33,0-28.8,4.42-43.09-7.61l12.25-28.6Z"/><polygon class="cls-3" points="729.66 529.62 502.16 529.62 502.16 516.43 729.66 516.43 729.66 529.62 729.66 529.62"/><path class="cls-8" d="M533.69,748.87v8.33c22.8,13.17,30.94,34.95,54.17,31.46a4.71,4.71,0,0,0,2.84-1.07c-11.66-6.74-32.59-24.88-32.59-38.72Z"/><path class="cls-10" d="M543,796.46V780c2,.45,13.79,9,19.07,11.39,21.53,9.9,41.74,3.79,28.66-3.76a4.74,4.74,0,0,1-2.84,1.07c-23.22,3.5-31.36-18.29-54.16-31.46l0,39.26Z"/><path class="cls-11" d="M328.5,796.51,370.13,621.2a46.28,46.28,0,0,1,18.23-27,57.47,57.47,0,0,1,65.89,0,46.28,46.28,0,0,1,18.23,27l41.63,175.31h-9L463.93,623.23a37.6,37.6,0,0,0-14.83-21.89,48.75,48.75,0,0,0-55.59,0,37.6,37.6,0,0,0-14.83,21.89L337.53,796.51Z"/><polygon class="cls-12" points="538.48 119.13 791.82 119.13 791.82 465.14 538.48 465.14 538.48 119.13 538.48 119.13"/><polygon class="cls-13" points="545.17 125.82 785.12 125.82 785.12 458.45 545.17 458.45 545.17 125.82 545.17 125.82"/><path class="cls-14" d="M785.12,207.64v2.68h-240v-2.68Zm0,83.15v2.68h-240v-2.68Zm0,83.16v2.68h-240V374Z"/><path class="cls-11" d="M582.3,148.94a17.79,17.79,0,1,1-12.58,5.21,17.74,17.74,0,0,1,12.58-5.21Zm10.05,7.74a14.22,14.22,0,1,0,4.16,10,14.18,14.18,0,0,0-4.16-10Z"/><path class="cls-15" d="M575.33,167.87a1.79,1.79,0,0,1,2-2.93l5,3.5L606,154.8a1.79,1.79,0,0,1,1.79,3.09L583.28,172a1.8,1.8,0,0,1-2,0l-5.95-4.14Z"/><path class="cls-14" d="M623.21,156.54H748.36a3.1,3.1,0,0,1,3.09,3.09h0a3.09,3.09,0,0,1-3.09,3.08H623.21a3.09,3.09,0,0,1-3.09-3.08h0a3.1,3.1,0,0,1,3.09-3.09Z"/><path class="cls-14" d="M623.21,170.74H727.64a3.1,3.1,0,0,1,3.08,3.09h0a3.09,3.09,0,0,1-3.08,3.08H623.21a3.09,3.09,0,0,1-3.09-3.08h0a3.1,3.1,0,0,1,3.09-3.09Z"/><path class="cls-11" d="M582.3,232.77A17.79,17.79,0,1,1,569.72,238a17.7,17.7,0,0,1,12.58-5.21Zm10.05,7.73a14.22,14.22,0,1,0,4.16,10.05,14.18,14.18,0,0,0-4.16-10.05Z"/><path class="cls-16" d="M575.33,251.69a1.79,1.79,0,0,1,2-2.93l5,3.5L606,238.63a1.78,1.78,0,1,1,1.79,3.08l-24.51,14.15a1.78,1.78,0,0,1-2,0l-5.95-4.15Z"/><path class="cls-14" d="M623.21,240.37H748.36a3.1,3.1,0,0,1,3.09,3.08h0a3.1,3.1,0,0,1-3.09,3.09H623.21a3.1,3.1,0,0,1-3.09-3.09h0a3.1,3.1,0,0,1,3.09-3.08Z"/><path class="cls-14" d="M623.21,254.57H727.64a3.09,3.09,0,0,1,3.08,3.08h0a3.1,3.1,0,0,1-3.08,3.09H623.21a3.1,3.1,0,0,1-3.09-3.09h0a3.1,3.1,0,0,1,3.09-3.08Z"/><path class="cls-11" d="M582.3,315.93a17.79,17.79,0,1,1-12.58,5.21,17.7,17.7,0,0,1,12.58-5.21Zm10.05,7.73a14.22,14.22,0,1,0,4.16,10,14.18,14.18,0,0,0-4.16-10Z"/><path class="cls-17" d="M575.33,334.85a1.79,1.79,0,0,1,2-2.93l5,3.5L606,321.79a1.78,1.78,0,1,1,1.79,3.08L583.28,339a1.78,1.78,0,0,1-2,0l-5.95-4.14Z"/><path class="cls-14" d="M623.21,323.52H748.36a3.1,3.1,0,0,1,3.09,3.09h0a3.1,3.1,0,0,1-3.09,3.09H623.21a3.1,3.1,0,0,1-3.09-3.09h0a3.1,3.1,0,0,1,3.09-3.09Z"/><path class="cls-14" d="M623.21,337.72H727.64a3.1,3.1,0,0,1,3.08,3.09h0a3.1,3.1,0,0,1-3.08,3.09H623.21a3.1,3.1,0,0,1-3.09-3.09h0a3.1,3.1,0,0,1,3.09-3.09Z"/><path class="cls-11" d="M582.3,399.75A17.79,17.79,0,1,1,569.72,405a17.74,17.74,0,0,1,12.58-5.21Zm10.05,7.74a14.22,14.22,0,1,0,4.16,10.05,14.18,14.18,0,0,0-4.16-10.05Z"/><path class="cls-18" d="M575.33,418.68a1.79,1.79,0,0,1,2-2.93l5,3.5L606,405.61a1.79,1.79,0,0,1,1.79,3.09l-24.51,14.15a1.8,1.8,0,0,1-2,0l-5.95-4.14Z"/><path class="cls-14" d="M623.21,407.35H748.36a3.1,3.1,0,0,1,3.09,3.09h0a3.09,3.09,0,0,1-3.09,3.08H623.21a3.09,3.09,0,0,1-3.09-3.08h0a3.1,3.1,0,0,1,3.09-3.09Z"/><path class="cls-14" d="M623.21,421.55H727.64a3.1,3.1,0,0,1,3.08,3.09h0a3.09,3.09,0,0,1-3.08,3.08H623.21a3.09,3.09,0,0,1-3.09-3.08h0a3.1,3.1,0,0,1,3.09-3.09Z"/><polygon class="cls-10" points="602.8 509.83 520.79 509.83 520.79 516.43 598.99 516.43 606.61 516.43 610.42 509.83 650.57 440.29 644.85 437 602.8 509.83 602.8 509.83"/><path class="cls-19" d="M35.06,135.57A35.06,35.06,0,1,1,0,170.62a35,35,0,0,1,35.06-35.05Z"/><path class="cls-13" d="M751.32,717.85a23.61,23.61,0,1,1-23.61,23.6,23.61,23.61,0,0,1,23.61-23.6Z"/><path class="cls-1" d="M298.55,73.1a38.14,38.14,0,1,1-38.14,38.14A38.15,38.15,0,0,1,298.55,73.1Z"/><path class="cls-7" d="M6.86,233c38.23,28.63,67.63,48.27,100.41,76.08,70.49,59.8,63.37,132.84,63.37,218.83C160,476.94,144.55,422.18,113.25,379.08,85,340.15,7.41,294,6.86,233Z"/><path class="cls-7" d="M163.51,311.24c3.47-38.05,11.61-66.56,4-104.06C152.5,134,162.64,69.84,177,0,48.26,91.23,141.74,215.81,163.51,311.24Z"/><path class="cls-20" d="M134.36,744.13h99A9.87,9.87,0,0,1,243.2,754v7.78a9.87,9.87,0,0,1-9.85,9.84H225a8.43,8.43,0,0,1-.13,1.32L216,822.37c-1.18,6.6-5.49,12.2-12.2,12.2h-42.3c-6.7,0-11.33-5.55-12.19-12.2l-6.43-49.46a9.74,9.74,0,0,1-.08-1.32h-8.45a9.87,9.87,0,0,1-9.85-9.84V754a9.87,9.87,0,0,1,9.85-9.84Z"/><path class="cls-7" d="M361.75,233c-38.23,28.63-67.63,48.27-100.42,76.08C190.84,368.86,198,441.9,198,527.89c10.65-50.95,26.09-105.71,57.4-148.81C283.63,340.15,361.19,294,361.75,233Z"/><path class="cls-21" d="M128.92,491c16.48,52.35,27.6,87.93,34.61,124.3s9.91,73.51,9.91,128.82h-5.19c0-55-2.85-91.81-9.8-127.85s-18-71.54-34.47-123.73l4.94-1.54Zm81-20.87-.32,1.38L186.84,592.15h0c1.12,20.57,2.07,40.83,2.81,61.14,1.09,30.05,1.72,60,1.72,90.84h-5.18c0-31.16-.62-61-1.7-90.66-.75-20.52-1.72-41.1-2.87-62.07L159,471.52l-1-4.36c-18.88-82-24.81-107.81-92.08-168.59,71.86,47,79.27,89.85,97.12,167.44l1,4.4,0,.1,15.42,81.85C176.8,490.3,172.87,430.55,167.18,371c-6-62.88-14-125.59-24.6-190.63-5.8-35.54-14-61.67-.43-95.95-6.74,36.52-2,59.88,5.53,95.12,10.64,65.13,18.63,128,24.65,191s10.06,126.18,12.8,192.07h0l.48,8.14,18.88-100.2,0-.1.33-1.42C219,395.69,227,354.5,287.07,305.7c-31.81,41.56-50.71,34-77.18,164.44Z"/><path class="cls-20" d="M92.14,703.8c.31-1.54,17.18-29.76,17.18-29.76,38.24-70.16-24.82-99.88-48.47-41.69C49.6,660,66.91,683.72,54.21,684c-16.75.3-14.67,17.13-9.81,38.79,17.51,78.06,49.28,52.32,50.8,17.38.54-12.2-5.3-25.09-3.06-36.32Z"/><path class="cls-22" d="M72.33,745.12a501.49,501.49,0,0,0,3,89l-4.06.48a505.5,505.5,0,0,1-3-89.68,493.16,493.16,0,0,1,13.06-88.06c-3.34,26.23-7.23,57.33-9,88.29Z"/><path class="cls-23" d="M864.27,71.77a60.53,60.53,0,1,1-60.53,60.53,60.53,60.53,0,0,1,60.53-60.53Z"/></g></g></svg>