<svg xmlns="http://www.w3.org/2000/svg" viewBox="0 0 500 500"><g id="freepik--Floor--inject-68"><ellipse id="freepik--floor--inject-68" cx="252" cy="345.64" rx="233.36" ry="134.73" style="fill:#f5f5f5"></ellipse></g><g id="freepik--Shadow--inject-68"><ellipse id="freepik--shadow--inject-68" cx="147.85" cy="371.49" rx="70.19" ry="40.52" style="fill:#e0e0e0"></ellipse></g><g id="freepik--Character--inject-68"><path d="M122.88,227.74c-7.16,16.3-.95,65.46-.95,65.46-.23,2.62-3.23,7.79-4.35,19.36-1.32,13.66,2.44,44.33,2.44,44.33s3.61,2.69,8.85.18c0,0,9.56-47.83,11.28-61.41,1.49-11.86,5.67-36.49,5.67-36.49l6.85,36.42a70.62,70.62,0,0,0-2.58,11.7c-.78,8,7,42.19,7,42.19s3.65,1.92,8.82-.18c0,0,3.45-45.89,4.17-55.52,1-12.89-1.23-48.16-4.18-66.24Z" style="fill:#455a64"></path><path d="M145.82,259.17l1.76-12.07s10.19-1.36,14.81-5.71a16.75,16.75,0,0,1-12,7.6l-1.8,10.91,3.12,31.64Z" style="fill:#263238;opacity:0.6000000000000001"></path><path d="M185.7,370.41h0s-2.25-1.86-6.11-4.86-11.3-8.79-12.1-11-.73-6.36,0-13.87c.83-8.48,2-13.22-.12-13.19l-.1,1.4c-.5,1.18-2,2.24-4.86,2.78-3.27.61-7.26-.45-8.86-1.78l-.27-1.57c-1.4.89-.71,4.14,0,8.4s2.24,11.57,2.18,15.85a66.71,66.71,0,0,1-.35,6.87l-.06.44h0a13.37,13.37,0,0,0-.09,3.69c.27,1.48,3.63,3.67,5.93,4.06s5.54,2.65,7.35,4.35a17.62,17.62,0,0,0,10.21,4c3.84,0,6.51-1.28,7.78-3.34C186.9,371.63,186.64,371.06,185.7,370.41Z" style="fill:#FFC100"></path><path d="M185.7,370.41h0s-2.25-1.86-6.11-4.86-11.3-8.79-12.1-11-.73-6.36,0-13.87c.83-8.48,2-13.22-.12-13.19l-.1,1.4c-.5,1.18-2,2.24-4.86,2.78-3.27.61-7.26-.45-8.86-1.78l-.27-1.57c-1.4.89-.71,4.14,0,8.4s2.24,11.57,2.18,15.85a66.71,66.71,0,0,1-.35,6.87l-.06.44h0a13.37,13.37,0,0,0-.09,3.69c.27,1.48,3.63,3.67,5.93,4.06s5.54,2.65,7.35,4.35a17.62,17.62,0,0,0,10.21,4c3.84,0,6.51-1.28,7.78-3.34C186.9,371.63,186.64,371.06,185.7,370.41Z" style="opacity:0.35000000000000003"></path><path d="M133.17,340.69c.64-3.44,1-5.38-.43-5.69l-.3,1.73c-.72.59-2.7,1.55-7.1,1.42a11.7,11.7,0,0,1-7.12-2.48l-.12-1.76c-1.27.5-1.49,1.11-.8,6,.79,5.68,1.38,11.42,1.9,17.14a58.93,58.93,0,0,1-.18,9.1c-.2,3.34-1.27,6.85-1.72,10.16a15.75,15.75,0,0,0,.44,6.93,14.36,14.36,0,0,0,2.63,4.95,9.92,9.92,0,0,0,3,2.5c2.3,1.21,4.86.83,6-1.67,2.05-4.32,1.87-6.86,1.54-11.31-.17-2.36-.25-2.89-.56-5.21s-1.37-7.68-.68-12S132.54,344.15,133.17,340.69Z" style="fill:#FFC100"></path><path d="M133.17,340.69c.64-3.44,1-5.38-.43-5.69l-.3,1.73c-.72.59-2.7,1.55-7.1,1.42a11.7,11.7,0,0,1-7.12-2.48l-.12-1.76c-1.27.5-1.49,1.11-.8,6,.79,5.68,1.38,11.42,1.9,17.14a58.93,58.93,0,0,1-.18,9.1c-.2,3.34-1.27,6.85-1.72,10.16a15.75,15.75,0,0,0,.44,6.93,14.36,14.36,0,0,0,2.63,4.95,9.92,9.92,0,0,0,3,2.5c2.3,1.21,4.86.83,6-1.67,2.05-4.32,1.87-6.86,1.54-11.31-.17-2.36-.25-2.89-.56-5.21s-1.37-7.68-.68-12S132.54,344.15,133.17,340.69Z" style="opacity:0.35000000000000003"></path><path d="M180.3,218.52c.58-5.66.68-9.45.51-10.16-.79-3.21-2.59-5.57-4.95-9.47-4.05-6.71-9.46-15.39-13.44-20.27-3.17-3.9-6.8-4.56-10.47-4.36-2.55.14.23,11.6,2.74,18.87l14.38,17.24a3.11,3.11,0,0,1,.57,2.11l-.88,13.14,4.3,5.75S179.56,225.76,180.3,218.52Z" style="fill:#37474f"></path><path d="M208.67,117.86c-8.88,1.7-17.39,9.2-22.07,17.15-18.14-.92-40.89,5.25-62.11,16l-16-62C143.2,82.45,176.88,88.18,208.67,117.86Z" style="fill:#FFC100"></path><path d="M186.59,135c-18.13-.92-40.88,5.25-62.1,16l-16-62C132.46,87.78,166.31,105.08,186.59,135Z" style="opacity:0.35000000000000003"></path><path d="M208.67,117.86C176.88,88.18,143.2,82.45,108.53,89c23.94-1.2,57.78,16.11,78.07,46C191.28,127.06,199.79,119.56,208.67,117.86Z" style="opacity:0.25"></path><path d="M34.77,162.61c8.6-2.81,19.67-.34,27.61,4.36,15.45-9.56,38.34-15.14,62.11-16l-16-62C75,100,48.29,121.27,34.77,162.61Z" style="fill:#FFC100"></path><path d="M62.38,167c15.44-9.55,38.35-15.14,62.11-16l-16-62C87,99.48,65.7,131,62.38,167Z" style="opacity:0.45"></path><path d="M34.77,162.61C48.29,121.27,75,100,108.53,89,87,99.47,65.7,131,62.38,167,54.44,162.27,43.37,159.8,34.77,162.61Z" style="opacity:0.55"></path><path d="M137.54,174.62h-6.06s-.13.71-1.68,1.57c-3.2,1.78-6.88,6.14-6.92,9.94,0,4.16.61,7.89,2.72,13.38l4.14,9c.65,4.41-4.08,7.31-8,21.8,12.21,6.82,28.89,5.61,37.5,1.92a16.86,16.86,0,0,0,6.68-4.72c-1.42-7.48-2-7.38-2.7-14.22a48.77,48.77,0,0,1-.46-8.32c3.91-5,5.16-11.75,3.18-16.27-4-9.18-10.7-14.78-14.58-14.47Z" style="fill:#f0f0f0"></path><path d="M146.6,223.86a35.13,35.13,0,0,0-10-3.43c-.71.07.94-4.94,2.61-9.74,0,0-5.08-23.73-6.37-27.16l-10,2.95a34,34,0,0,0,2.72,13l4.14,9c.65,4.41-4.08,7.31-8,21.8,9.31,5.2,21.22,5.72,30.17,4a51,51,0,0,1-14.17-2c-5.73-1.9-8.09-5.75-4.87-6.77a9.12,9.12,0,0,1,5.43-.14,14.87,14.87,0,0,1,3.85,1.75,12.55,12.55,0,0,0,14.06-.83c5-3.64,1-8.52,1-8.52S149.19,225.53,146.6,223.86Z" style="fill:#e0e0e0"></path><path d="M165.35,172.26h-25a16.87,16.87,0,0,1-16.87-16.87V148a19.79,19.79,0,0,1,19.79-19.79h2.3A19.79,19.79,0,0,1,165.35,148Z" style="fill:#263238"></path><path d="M158.05,137.12c2.21,1.31,4.94,6.87,4.67,18.54-.22,9.88-3.43,12.32-5,13s-4.71.27-7.73-.23v5.93s3.24,2.59,3,5.31-6.77,3.14-10.67.49-4.71-5.57-4.71-5.57v-14s-1.65,1.75-4.58-.26a5.38,5.38,0,0,1-1.37-7.82,4,4,0,0,1,6,.72s4.05-.35,10.46-3.87A20.68,20.68,0,0,0,158.05,137.12Z" style="fill:#b16668"></path><path d="M150.58,153.17a1.26,1.26,0,0,1-1.18,1.35,1.29,1.29,0,1,1,1.18-1.35Z" style="fill:#263238"></path><path d="M152,161.55l2.89.92a1.49,1.49,0,0,1-1.88,1A1.58,1.58,0,0,1,152,161.55Z" style="fill:#9a4a4d"></path><path d="M161.6,149.36l-2.51-1.75a1.48,1.48,0,0,1,2.09-.43A1.62,1.62,0,0,1,161.6,149.36Z" style="fill:#263238"></path><path d="M161,152.27a1.24,1.24,0,1,1-2.48.12,1.24,1.24,0,1,1,2.48-.12Z" style="fill:#263238"></path><polygon points="154.12 151.56 154.32 159.05 158.26 157.83 154.12 151.56" style="fill:#9a4a4d"></polygon><path d="M150,168.46c-3.18-.42-9.72-2.29-10.73-4.88a6.73,6.73,0,0,0,2.29,3.3c2,1.67,8.44,3.56,8.44,3.56Z" style="fill:#9a4a4d"></path><path d="M110.86,97.31l-.38,0-.45,0h-.39c-.58,0-.42-.31-.54-.6l-.62-2.48c-.49-2.05-1.11-4.8-1.64-7.57-.27-1.38-.51-2.78-.71-4.09-.1-.65-.22-1.28-.29-1.89s-.16-1.17-.23-1.7-.12-1-.17-1.44-.09-.81-.11-1.12c-.06-.62-.08-1-.08-1s.16.32.41.89c.13.29.27.64.44,1s.36.85.55,1.34l.62,1.6c.23.57.43,1.18.66,1.8.45,1.25.91,2.58,1.34,3.92.87,2.69,1.66,5.39,2.22,7.43.27,1,.5,1.87.66,2.46,0,.31.31.49-.19.79a3.4,3.4,0,0,1-.34.2l-.41.19Z" style="fill:#455a64"></path><path d="M132,212.88c-2.56,1-12.31-2.13-17.48-3.36l15.23-15c3.67-7.31,2.45-16.82,1.62-19.28-5,.07-6.41,1-11.91,8.3-4,5.24-15.83,18.71-19.75,27.06-1.29,2.74-1.23,5.08,1.07,6.56,5.28,3.4,14.47,3.72,32.94,5.3" style="fill:#b16668"></path><path d="M130,194.94c2.9-3.43,4-12.6,1.51-20.32a10.06,10.06,0,0,0-8.6,3.1c-5,4.84-16.75,21.89-16.75,21.89-3.84,4.35-8.21,12.5-8,14.67s2,4.25,6.7,5.53S130,222.45,130,222.45a43.91,43.91,0,0,0,.89-9.68c-6.16-1.2-11.76-2.36-15.38-3.39C115.5,209.38,127.39,198,130,194.94Z" style="fill:#37474f"></path><path d="M130.88,213.07a5,5,0,0,0,2.45-1c.82-.56,1.59-1.19,2.44-1.69a48.46,48.46,0,0,1,6.68-2.93,1.28,1.28,0,0,1,.69-.14.87.87,0,0,1,.58.51,2.37,2.37,0,0,1,.16.79c.06.56-.08,1.13,0,1.69C144.55,216,132.15,215.85,130.88,213.07Z" style="fill:#b16668"></path><path d="M140.21,212.08a1.35,1.35,0,0,1-1.65-1L112.27,108.89a1.35,1.35,0,1,1,2.62-.67l26.29,102.22A1.34,1.34,0,0,1,140.21,212.08Z" style="fill:#455a64"></path><path d="M152.86,226.44a10.08,10.08,0,0,1-13.18-6.95l-1.94-7.5a.64.64,0,0,1,.46-.79l3.34-.86a.65.65,0,0,1,.79.47l1.94,7.5a5.33,5.33,0,0,0,7.14,3.61,5.46,5.46,0,0,0,3.12-6.45l-.79-3.05a2.44,2.44,0,0,1,1.24-2.81,2.37,2.37,0,0,1,3.33,1.55l.78,3A10.26,10.26,0,0,1,152.86,226.44Z" style="fill:#FFC100"></path><g style="opacity:0.35000000000000003"><path d="M152.86,226.44a10.08,10.08,0,0,1-13.18-6.95l-1.94-7.5a.64.64,0,0,1,.46-.79l3.34-.86a.65.65,0,0,1,.79.47l1.94,7.5a5.33,5.33,0,0,0,7.14,3.61,5.46,5.46,0,0,0,3.12-6.45l-.79-3.05a2.44,2.44,0,0,1,1.24-2.81,2.37,2.37,0,0,1,3.33,1.55l.78,3A10.26,10.26,0,0,1,152.86,226.44Z"></path></g><path d="M130.88,213.12c1.25.51,5.56.24,8.12-.31a10.54,10.54,0,0,0,3.53-1.25l-.42-1.65s2.07-.11,3,.78.39,2.18.78,2.7a7.38,7.38,0,0,1,1,2.14c.16.67,1,2,.94,2.68s0,2.18,0,2.18a5.75,5.75,0,0,1-4.92,3.12c-3.71.26-10.22-1.28-10.22-1.28Z" style="fill:#b16668"></path><path d="M179,211.57h0l-.86-.74v0a.94.94,0,0,0-.88-.1L168,213.26a3.44,3.44,0,0,0-2.08,1.94l-6.66,19.2a.89.89,0,0,0,.13,1h0l.88.76v0a.92.92,0,0,0,.89.11l9.24-2.52a3.39,3.39,0,0,0,2.08-1.94l6.66-19.2C179.28,212.11,179.2,211.75,179,211.57Z" style="fill:#455a64"></path><path d="M160.11,235.14l6.66-19.2a3.4,3.4,0,0,1,2.07-1.94l9.25-2.52c.86-.23,1.32.26,1,1.1l-6.66,19.2a3.39,3.39,0,0,1-2.08,1.94l-9.24,2.52C160.28,236.47,159.82,236,160.11,235.14Z" style="fill:#FFC100"></path><path d="M167.84,214.53a3.43,3.43,0,0,0-1.08,1.41l-6.65,19.2a.91.91,0,0,0,.09,1l-.83-.71h0a.87.87,0,0,1-.13-1l6.66-19.2a3.25,3.25,0,0,1,1-1.33Z" style="fill:#37474f"></path><path d="M176.41,220.32c-.65,2-3,3.26-6.8,4.16s-5.93,5-5.31,6.2,6.78,2.38,9.25,2,5-3.92,5.7-5,1.62-8.82.83-9.87a3,3,0,0,0-2.46-.9Z" style="fill:#b16668"></path><path d="M117.38,123.37a94.94,94.94,0,0,0-51.74,20C50,146.12,40.35,153,34.77,162.61c12-42.05,41.58-65.35,73.76-73.64s69.29-2.12,100.14,28.89c-9.54-5.75-21.29-7.09-36.3-1.92A95,95,0,0,0,117.38,123.37Z" style="fill:#FFC100"></path><path d="M172.37,115.94a95,95,0,0,0-55,7.43L108.53,89C145.3,79.52,172.37,115.94,172.37,115.94Z" style="opacity:0.15"></path><path d="M208.67,117.86c-30.85-31-67.95-37.17-100.14-28.89,36.77-9.46,63.84,27,63.84,27C187.38,110.77,199.13,112.11,208.67,117.86Z" style="opacity:0.1"></path><path d="M65.64,143.4a95,95,0,0,1,51.74-20L108.53,89C71.76,98.44,65.64,143.4,65.64,143.4Z" style="opacity:0.2"></path><path d="M34.77,162.61c12-42.05,41.58-65.35,73.76-73.64C71.76,98.44,65.64,143.4,65.64,143.4,50,146.12,40.35,153,34.77,162.61Z" style="opacity:0.25"></path></g><g id="freepik--twitter-icon--inject-68"><g id="freepik--twitter-icon--inject-68"><path d="M444.15,53.74l-6.45-4-2.48,5,3.5,3.82s.21.75,1.92-.57A20,20,0,0,0,444.15,53.74Z" style="fill:#FFC100"></path><path d="M444.15,53.74l-6.45-4-2.48,5,3.5,3.82s.21.75,1.92-.57A20,20,0,0,0,444.15,53.74Z" style="fill:#37474f;opacity:0.5"></path><path d="M439.28,62.57c0,7.89-2.26,17.43-6.45,26.29-4.79,10.1-12.07,19.33-21.3,24.27-5.29,2.83-10.13,3.42-14.15,2.16l-6.46-4c4.19-1.6,8.44-5,12.11-9.81l-4-2.47a6.25,6.25,0,0,1-2.58-4,10.19,10.19,0,0,0,2.69-1.29l-2.64-1.65c-2-1.23-3.11-4-2.92-7.67a6.64,6.64,0,0,0,4.18-.73,4.31,4.31,0,0,1-1.15-.59c-3.05-2.17-3.57-8.08-1.21-14.19l6.45,4a18.1,18.1,0,0,0,12.4-1.53c-1.11-6.92,3.56-16.65,9.59-19.87,2.69-1.44,5.07-1.26,6.7.22a35.89,35.89,0,0,0,6-6.15l6.46,4a24.4,24.4,0,0,1-4.33,9,31.33,31.33,0,0,0,5.43-4.8A49,49,0,0,1,439.28,62.57Z" style="fill:#FFC100"></path><path d="M439.28,62.57c0,7.89-2.26,17.43-6.45,26.29-4.79,10.1-12.07,19.33-21.3,24.27-5.29,2.83-10.13,3.42-14.15,2.16,4.93-1.88,9.94-6.32,14-12.45-4.08,2.08-7.42.4-8.45-3.83a11.24,11.24,0,0,0,4.23-2.46c-4.45,1.21-7.38-2.43-7.1-8.14a6.67,6.67,0,0,0,4.19-.73,4.45,4.45,0,0,1-.93-.45c-3.25-2-3.84-8.09-1.43-14.33.69,3.25,6.73,5.76,11.95,5.68,5.05-.07,6.78-3,6.88-3.19h0c-1.11-6.92,3.57-16.65,9.6-19.88,2.68-1.43,5.06-1.25,6.69.21a35.79,35.79,0,0,0,6-6.13,24.4,24.4,0,0,1-4.33,9,31.33,31.33,0,0,0,5.43-4.8A49,49,0,0,1,439.28,62.57Z" style="fill:#FFC100"></path><path d="M443.05,49.58h0a36.46,36.46,0,0,1-6,6.12,4.51,4.51,0,0,0-1.44-.87l-5-3.13a35.89,35.89,0,0,0,6-6.15Z" style="fill:#37474f;opacity:0.2"></path><path d="M407.16,96.55A11.24,11.24,0,0,1,402.93,99l-6.45-4a10.19,10.19,0,0,0,2.69-1.29L402.83,96l.11.07.17.11A5.21,5.21,0,0,0,407.16,96.55Z" style="fill:#37474f;opacity:0.5"></path><path d="M420.73,75.38h0s0,0,0,0c-.2.34-2,3.1-6.87,3.17-5.22.08-11.26-2.43-11.95-5.68h0a15.48,15.48,0,0,0,3.39.5,19.67,19.67,0,0,0,9-2Z" style="fill:#37474f;opacity:0.2"></path><path d="M401.89,72.9h0l-6.45-4c-2.36,6.11-1.84,12,1.21,14.19l.44.28.6.36,5.64,3.52C400.08,85.19,399.47,79.14,401.89,72.9Z" style="fill:#37474f;opacity:0.30000000000000004"></path><path d="M404.25,87.68a6.67,6.67,0,0,1-4.19.73l-6.45-4a6.46,6.46,0,0,0,4.07-.68l5.64,3.52A4.71,4.71,0,0,0,404.25,87.68Z" style="fill:#37474f;opacity:0.5"></path><path d="M411.38,102.84c-4.06,6.13-9.07,10.57-14,12.45l-6.46-4c4.19-1.6,8.44-5,12.11-9.81l2.51,1.56C407.07,104,409.11,104,411.38,102.84Z" style="fill:#37474f;opacity:0.5"></path><path d="M435.64,54.86a6.22,6.22,0,0,0-5.31.64c-6,3.23-10.71,13-9.6,19.88l-6.45-4c-1.11-6.92,3.56-16.65,9.59-19.87,2.69-1.44,5.07-1.26,6.7.22Z" style="fill:#37474f;opacity:0.30000000000000004"></path><path d="M402.83,96l-3.66-2.27-2.64-1.65c-2-1.23-3.11-4-2.92-7.67l6.45,4C399.89,92,400.94,94.69,402.83,96Z" style="fill:#37474f;opacity:0.30000000000000004"></path><path d="M405.35,102.91,403,101.47l-4-2.46a6.3,6.3,0,0,1-2.58-4l6.45,4A6.43,6.43,0,0,0,405.35,102.91Z" style="fill:#37474f;opacity:0.30000000000000004"></path></g></g><g id="freepik--thunderbolt-icon--inject-68"><g id="freepik--thunderbolt-icon--inject-68"><polygon points="426.34 142.19 425.33 142.62 432.87 126.22 426.99 122.56 409.45 129.96 398.15 162.22 404.03 165.88 404.76 165.57 397.24 190.1 403.11 193.76 432.22 145.85 426.34 142.19" style="fill:#FFC100"></polygon><polygon points="415.33 133.62 432.87 126.22 421.84 150.23 432.22 145.85 403.11 193.76 412.8 162.18 404.03 165.88 415.33 133.62" style="fill:#FFC100"></polygon><polygon points="432.87 126.22 426.99 122.56 409.45 129.96 415.33 133.62 432.87 126.22" style="fill:#37474f;opacity:0.2"></polygon><polygon points="415.33 133.62 404.03 165.88 398.15 162.22 409.45 129.96 415.33 133.62" style="fill:#37474f;opacity:0.30000000000000004"></polygon><polygon points="404.76 165.57 412.8 162.18 403.11 193.76 397.24 190.1 404.76 165.57" style="fill:#37474f;opacity:0.5"></polygon><polygon points="426.34 142.19 425.33 142.62 421.84 150.23 432.22 145.85 426.34 142.19" style="fill:#37474f;opacity:0.2"></polygon></g></g><g id="freepik--heart-icon--inject-68"><g id="freepik--heart-icon--inject-68"><path d="M434.74,198.12v0l-6-3.75h0c-2.23-1.42-5.62-1.27-9.47.78-5.32,2.85-10,10-12.06,16.1l-4.28-2.65h0c-2.19-1.58-5.26-1.91-8.72-.06-.43.23-.86.48-1.28.75l-.66.45c-.19.13-.39.25-.58.39s-.58.45-.87.68l-.33.26c-.34.28-.67.57-1,.87l-.15.14c-.36.33-.72.69-1.07,1.05l0,0a29,29,0,0,0-2.95,3.6h0c-2.43,3.51-4,7.45-4.12,10.94-.22,6.49,3.66,10.77,8.5,13.58h0l4.75,3h0a33.84,33.84,0,0,0,9.12,4.12l7.93,2.38,8.36-11.08c8-10.57,17.53-25.21,17.85-35C437.75,201.47,436.64,199.25,434.74,198.12Z" style="fill:#FFC100"></path><path d="M394.32,244.16l-4.69-2.9c-4.83-2.81-8.71-7.09-8.5-13.58a21.43,21.43,0,0,1,4.14-10.94l6.18,3.84c-2.44,3.51-4,7.45-4.13,10.94C387.13,237.32,390.21,241.37,394.32,244.16Z" style="fill:#FFC100"></path><g style="opacity:0.5"><path d="M394.32,244.16l-4.69-2.9c-4.83-2.81-8.71-7.09-8.5-13.58a21.43,21.43,0,0,1,4.14-10.94l6.18,3.84c-2.44,3.51-4,7.45-4.13,10.94C387.13,237.32,390.21,241.37,394.32,244.16Z" style="fill:#37474f"></path></g><path d="M434.71,198.07c-2.23-1.29-5.55-1.09-9.29.91-6.42,3.42-11.95,13.15-12.95,19.67-.61-5.65-5.68-9.72-12.11-6.28a26.48,26.48,0,0,0-8.91,8.21l-6.18-3.84.31-.45c.09-.12.17-.24.27-.36.22-.3.46-.61.69-.9a26.26,26.26,0,0,1,2.13-2.35c.18-.19.37-.37.56-.55l.42-.38a23.19,23.19,0,0,1,4.53-3.23,9.58,9.58,0,0,1,4.83-1.25,7,7,0,0,1,3.89,1.31l4.28,2.65c2-6.09,6.74-13.25,12.07-16.1,3.84-2,7.23-2.21,9.46-.78h0Z" style="fill:#FFC100"></path><path d="M434.71,198.07c-2.23-1.29-5.55-1.09-9.29.91-6.42,3.42-11.95,13.15-12.95,19.67-.61-5.65-5.68-9.72-12.11-6.28a26.48,26.48,0,0,0-8.91,8.21l-6.18-3.84.31-.45c.09-.12.17-.24.27-.36.22-.3.46-.61.69-.9a26.26,26.26,0,0,1,2.13-2.35c.18-.19.37-.37.56-.55l.42-.38a23.19,23.19,0,0,1,4.53-3.23,9.58,9.58,0,0,1,4.83-1.25,7,7,0,0,1,3.89,1.31l4.28,2.65c2-6.09,6.74-13.25,12.07-16.1,3.84-2,7.23-2.21,9.46-.78h0Z" style="fill:#37474f;opacity:0.2"></path></g></g><g id="freepik--Panel--inject-68"><path d="M240.56,351.46l-3.8-2.2a4.8,4.8,0,0,1-2.16-3.75V129.87a4.8,4.8,0,0,1,2.16-3.75L342.11,65.3a4.79,4.79,0,0,1,4.33,0l3.79,2.19a4.78,4.78,0,0,1,2.17,3.75V286.88a4.78,4.78,0,0,1-2.17,3.75L244.89,351.46A4.79,4.79,0,0,1,240.56,351.46Z" style="fill:#455a64"></path><path d="M352.38,70.88c-.15-1.12-1.06-1.53-2.15-.9L244.89,130.81a4.48,4.48,0,0,0-1.53,1.61l-8.13-4.69a4.43,4.43,0,0,1,1.53-1.62L342.11,65.29a4.79,4.79,0,0,1,4.33,0l3.79,2.19A4.83,4.83,0,0,1,352.38,70.88Z" style="fill:#455a64"></path><path d="M244.52,351.63a4.83,4.83,0,0,1-4-.17l-3.8-2.2a4.8,4.8,0,0,1-2.16-3.75V129.86a4.43,4.43,0,0,1,.63-2.13l8.13,4.69a4.37,4.37,0,0,0-.64,2.14V350.21C242.72,351.45,243.5,352,244.52,351.63Z" style="fill:#263238"></path><path d="M242.72,134.56V350.21c0,1.38,1,1.94,2.17,1.25l105.34-60.83a4.78,4.78,0,0,0,2.17-3.75V71.24c0-1.38-1-1.94-2.17-1.25L244.89,130.81A4.78,4.78,0,0,0,242.72,134.56Z" style="fill:#37474f"></path><path d="M234.6,160.2l-24.91,26.72a2,2,0,0,0,.43,3.09c.34.2,7.12,4.06,8.13,4.67a2,2,0,0,0,1.2.27L242.72,193V164.87Z" style="fill:#FFC100"></path><path d="M218.12,194.6c-1.36-.81-7.67-4.4-8-4.59a2,2,0,0,1-.43-3.09L234.6,160.2l8.12,4.66-24.9,26.73A2,2,0,0,0,218.12,194.6Z" style="fill:#455a64"></path><path d="M242.72,164.87l-24.9,26.72a2,2,0,0,0,1.63,3.36L242.72,193Z" style="fill:#37474f"></path><path d="M253,135.53l89.1-51.44c1.19-.69,2.16-.13,2.16,1.25V99.1a4.8,4.8,0,0,1-2.16,3.75L253,154.29c-1.19.69-2.16.13-2.16-1.25V139.28A4.78,4.78,0,0,1,253,135.53Z" style="fill:#455a64"></path><path d="M261.89,143.36l-2.12-2,2.26-4.79a.66.66,0,0,0-.31-.88.67.67,0,0,0-.88.32l-2.07,4.38L257,138.62a.66.66,0,0,0-.91.95l2.12,2-2.26,4.79a.66.66,0,0,0,.31.88.72.72,0,0,0,.29.06.65.65,0,0,0,.59-.38l2.07-4.38,1.81,1.73a.61.61,0,0,0,.45.19.64.64,0,0,0,.48-.21A.65.65,0,0,0,261.89,143.36Z" style="fill:#FFC100"></path><path d="M311.78,106.29l20-11.57c2.39-1.38,4.33-.4,4.33,2.19a9.29,9.29,0,0,1-4.33,7.19l-20,11.57c-2.4,1.38-4.33.4-4.33-2.19A9.26,9.26,0,0,1,311.78,106.29Z" style="fill:#FFC100"></path><path d="M313.1,107.83a.07.07,0,0,1,.09,0,.16.16,0,0,1,0,.12v.54a.34.34,0,0,1,0,.16.25.25,0,0,1-.09.11l-.87.51v4.1a.47.47,0,0,1,0,.16.22.22,0,0,1-.1.11l-.39.23s-.07,0-.09,0,0-.06,0-.12v-4.09l-.88.5a.06.06,0,0,1-.09,0,.16.16,0,0,1,0-.11v-.54a.47.47,0,0,1,0-.16.26.26,0,0,1,.09-.11Z" style="fill:#fff"></path><path d="M315.9,109.88l.43-2.39a.88.88,0,0,1,.05-.15.14.14,0,0,1,.09-.11l.37-.22a.07.07,0,0,1,.09,0,.16.16,0,0,1,0,.12v.06l-.74,3.87a.83.83,0,0,1,0,.15.18.18,0,0,1-.1.11l-.37.22s-.07,0-.09,0a.31.31,0,0,1-.05-.1l-.47-1.72-.47,2.27a.88.88,0,0,1-.05.15.2.2,0,0,1-.09.11l-.37.22c-.05,0-.08,0-.1,0a.23.23,0,0,1,0-.1l-.74-3v0a.35.35,0,0,1,0-.17.25.25,0,0,1,.09-.11l.37-.21q.08,0,.09,0a.47.47,0,0,1,.05.1l.43,1.89.47-2.41a.53.53,0,0,1,0-.15.2.2,0,0,1,.09-.11l.36-.21s.07,0,.09,0a.19.19,0,0,1,.05.1Z" style="fill:#fff"></path><path d="M317.38,108.65a4,4,0,0,1,.09-.84,3.73,3.73,0,0,1,.23-.78,3.17,3.17,0,0,1,.38-.65,1.67,1.67,0,0,1,.49-.44.77.77,0,0,1,.5-.13.6.6,0,0,1,.37.19,1,1,0,0,1,.24.47,2.33,2.33,0,0,1,.09.68v.34a.34.34,0,0,1,0,.16.35.35,0,0,1-.09.11l-1.63.94a.74.74,0,0,0,.05.28.28.28,0,0,0,.12.14.3.3,0,0,0,.18,0,.6.6,0,0,0,.21-.08,1.09,1.09,0,0,0,.26-.19c.06-.07.11-.15.16-.22a1.05,1.05,0,0,1,.08-.13.39.39,0,0,1,.1-.08l.38-.22a.09.09,0,0,1,.1,0,.16.16,0,0,1,0,.12,1.61,1.61,0,0,1-.08.32,3.41,3.41,0,0,1-.21.44,2.86,2.86,0,0,1-.35.47,2.28,2.28,0,0,1-.48.39.9.9,0,0,1-.49.14.59.59,0,0,1-.38-.2,1.22,1.22,0,0,1-.23-.5A3,3,0,0,1,317.38,108.65Zm1.19-1.81a.91.91,0,0,0-.24.2,1.4,1.4,0,0,0-.16.26,1.08,1.08,0,0,0-.11.28c0,.1,0,.19-.05.27l1.1-.64a1.52,1.52,0,0,0,0-.21.39.39,0,0,0-.09-.17.25.25,0,0,0-.16-.08A.57.57,0,0,0,318.57,106.84Z" style="fill:#fff"></path><path d="M320.29,107a4,4,0,0,1,.09-.84,3.73,3.73,0,0,1,.23-.78,3.17,3.17,0,0,1,.38-.65,1.67,1.67,0,0,1,.49-.44.77.77,0,0,1,.5-.13.6.6,0,0,1,.37.19,1,1,0,0,1,.24.47,2.33,2.33,0,0,1,.09.68v.34a.34.34,0,0,1,0,.16.35.35,0,0,1-.09.11l-1.63.94a.74.74,0,0,0,.05.28.33.33,0,0,0,.12.14.3.3,0,0,0,.18,0,.6.6,0,0,0,.21-.08,1.09,1.09,0,0,0,.26-.19c.06-.07.11-.15.16-.22a1.05,1.05,0,0,1,.08-.13.39.39,0,0,1,.1-.08l.38-.22a.09.09,0,0,1,.1,0,.15.15,0,0,1,0,.12,1.61,1.61,0,0,1-.08.32,3.41,3.41,0,0,1-.21.44,2.86,2.86,0,0,1-.35.47,2.28,2.28,0,0,1-.48.39.9.9,0,0,1-.49.14.59.59,0,0,1-.38-.2,1.22,1.22,0,0,1-.23-.5A3,3,0,0,1,320.29,107Zm1.19-1.81a.91.91,0,0,0-.24.2,2.33,2.33,0,0,0-.17.26,1.57,1.57,0,0,0-.1.28c0,.1,0,.19-.05.27l1.1-.64a1.52,1.52,0,0,0,0-.21.39.39,0,0,0-.09-.17.25.25,0,0,0-.16-.08A.57.57,0,0,0,321.48,105.16Z" style="fill:#fff"></path><path d="M324.18,105.26a.51.51,0,0,0,.08.32c.05.07.15,0,.3,0l.29-.17a.08.08,0,0,1,.1,0,.16.16,0,0,1,0,.11v.5a.47.47,0,0,1,0,.16.25.25,0,0,1-.1.12l-.36.2c-.3.18-.53.2-.7.07s-.24-.43-.24-.9V104l-.32.18a.09.09,0,0,1-.1,0,.21.21,0,0,1,0-.12v-.5a.45.45,0,0,1,0-.16.27.27,0,0,1,.1-.11l.32-.19v-1.22a.32.32,0,0,1,0-.16.17.17,0,0,1,.09-.11l.37-.22a.06.06,0,0,1,.09,0s0,.06,0,.12v1.22l.63-.36a.07.07,0,0,1,.09,0,.21.21,0,0,1,0,.12v.5a.47.47,0,0,1,0,.16.35.35,0,0,1-.09.11l-.63.36Z" style="fill:#fff"></path><path d="M328.33,99c.05,0,.09,0,.11,0a.35.35,0,0,1,.07.15l1.19,4s0,0,0,0a.53.53,0,0,1,0,.17.35.35,0,0,1-.09.11l-.35.2c-.07,0-.11,0-.14,0a.19.19,0,0,1,0-.1l-.21-.71-1.54.89-.21,1a.58.58,0,0,1-.05.16.37.37,0,0,1-.14.14l-.35.2a.06.06,0,0,1-.09,0,.17.17,0,0,1,0-.12s0,0,0,0l1.19-5.41a.79.79,0,0,1,.07-.23.26.26,0,0,1,.11-.14Zm.26,3.12-.53-1.82-.53,2.44Z" style="fill:#fff"></path><path d="M330.86,102.61a.32.32,0,0,1,0,.16.31.31,0,0,1-.09.12l-.37.21s-.07,0-.09,0,0-.06,0-.12v-4.9a.35.35,0,0,1,0-.17.2.2,0,0,1,.09-.11l.37-.21a.07.07,0,0,1,.09,0,.16.16,0,0,1,0,.12Z" style="fill:#fff"></path><path d="M332.28,101.79a.32.32,0,0,1,0,.16.17.17,0,0,1-.09.11l-.37.22s-.07,0-.09,0a.15.15,0,0,1,0-.12V97.24a.34.34,0,0,1,0-.16.2.2,0,0,1,.09-.11l.37-.22a.07.07,0,0,1,.09,0,.16.16,0,0,1,0,.12Z" style="fill:#fff"></path><path d="M259,164.9c4.49-2.59,8.13-.49,8.12,4.69s-3.63,11.48-8.12,14.08-8.12.49-8.12-4.69S254.49,167.5,259,164.9Z" style="fill:#FFC100;opacity:0.9"></path><path d="M258.88,167.42c1.2-.69,2.18-.13,2.18,1.26a4.81,4.81,0,0,1-2.18,3.77c-1.2.69-2.18.13-2.18-1.26A4.81,4.81,0,0,1,258.88,167.42Z" style="fill:#fff"></path><path d="M263.17,175.37c0-2.28-1.6-3.29-3.58-2.15l-1.23.71a7.91,7.91,0,0,0-3.58,6.2v.61s.84,1.74,4.19-.24a9.33,9.33,0,0,0,4.2-4.6Z" style="fill:#fff"></path><path d="M273.32,156.62l64.73-37.37c1.19-.69,2.16-.2,2.16,1.09a4.65,4.65,0,0,1-2.16,3.6l-64.73,37.37c-1.19.69-2.16.2-2.16-1.1A4.65,4.65,0,0,1,273.32,156.62Z" style="fill:#f0f0f0"></path><path d="M273.32,166l64.73-37.37c1.19-.69,2.16-.2,2.16,1.1a4.65,4.65,0,0,1-2.16,3.59l-64.73,37.37c-1.19.69-2.16.2-2.16-1.09A4.65,4.65,0,0,1,273.32,166Z" style="fill:#f0f0f0"></path><path d="M273.32,175.33,338.05,138c1.19-.69,2.16-.2,2.16,1.09a4.65,4.65,0,0,1-2.16,3.6L273.32,180c-1.19.69-2.16.2-2.16-1.1A4.65,4.65,0,0,1,273.32,175.33Z" style="fill:#f0f0f0"></path><path d="M273.32,184.68l64.73-37.37c1.19-.69,2.16-.2,2.16,1.1a4.65,4.65,0,0,1-2.16,3.59l-64.73,37.37c-1.19.69-2.16.2-2.16-1.1A4.65,4.65,0,0,1,273.32,184.68Z" style="fill:#f0f0f0"></path><path d="M259,216.5c4.49-2.59,8.13-.5,8.12,4.69s-3.63,11.48-8.12,14.07-8.12.49-8.12-4.69S254.49,219.09,259,216.5Z" style="fill:#FFC100;opacity:0.9"></path><path d="M258.88,219c1.2-.69,2.18-.13,2.18,1.26a4.81,4.81,0,0,1-2.18,3.77c-1.2.7-2.18.13-2.18-1.25A4.84,4.84,0,0,1,258.88,219Z" style="fill:#fff"></path><path d="M263.17,227c0-2.29-1.6-3.3-3.58-2.16l-1.23.72a7.89,7.89,0,0,0-3.58,6.19v.62s.84,1.73,4.19-.25a9.33,9.33,0,0,0,4.2-4.59Z" style="fill:#fff"></path><path d="M273.32,208.21l64.73-37.37c1.19-.69,2.16-.2,2.16,1.1a4.65,4.65,0,0,1-2.16,3.59L273.32,212.9c-1.19.69-2.16.2-2.16-1.09A4.65,4.65,0,0,1,273.32,208.21Z" style="fill:#f0f0f0"></path><path d="M273.32,217.56l64.73-37.37c1.19-.69,2.16-.2,2.16,1.1a4.65,4.65,0,0,1-2.16,3.6l-64.73,37.36c-1.19.69-2.16.2-2.16-1.09A4.65,4.65,0,0,1,273.32,217.56Z" style="fill:#f0f0f0"></path><path d="M273.32,226.92l64.73-37.37c1.19-.69,2.16-.2,2.16,1.09a4.65,4.65,0,0,1-2.16,3.6l-64.73,37.37c-1.19.69-2.16.2-2.16-1.1A4.65,4.65,0,0,1,273.32,226.92Z" style="fill:#f0f0f0"></path><path d="M273.32,236.27l64.73-37.37c1.19-.69,2.16-.2,2.16,1.1a4.65,4.65,0,0,1-2.16,3.59L273.32,241c-1.19.69-2.16.2-2.16-1.09A4.65,4.65,0,0,1,273.32,236.27Z" style="fill:#f0f0f0"></path><path d="M259,268.11c4.49-2.59,8.13-.49,8.12,4.69s-3.63,11.48-8.12,14.07-8.12.49-8.12-4.69S254.49,270.7,259,268.11Z" style="fill:#FFC100;opacity:0.9"></path><path d="M258.88,270.62c1.2-.69,2.18-.13,2.18,1.26a4.81,4.81,0,0,1-2.18,3.77c-1.2.7-2.18.14-2.18-1.25A4.84,4.84,0,0,1,258.88,270.62Z" style="fill:#fff"></path><path d="M263.17,278.58c0-2.28-1.6-3.3-3.58-2.16l-1.23.72a7.89,7.89,0,0,0-3.58,6.19V284s.84,1.73,4.19-.25a9.33,9.33,0,0,0,4.2-4.59Z" style="fill:#fff"></path><path d="M273.32,259.82l64.73-37.37c1.19-.69,2.16-.2,2.16,1.1a4.65,4.65,0,0,1-2.16,3.59l-64.73,37.37c-1.19.69-2.16.2-2.16-1.09A4.65,4.65,0,0,1,273.32,259.82Z" style="fill:#f0f0f0"></path><path d="M273.32,269.18l64.73-37.37c1.19-.69,2.16-.2,2.16,1.09a4.65,4.65,0,0,1-2.16,3.6l-64.73,37.37c-1.19.69-2.16.2-2.16-1.1A4.65,4.65,0,0,1,273.32,269.18Z" style="fill:#f0f0f0"></path><path d="M259,189.35v21.46c0,.55.39.77.87.5a1.94,1.94,0,0,0,.86-1.5V188.35c0-.55-.39-.77-.86-.5A1.92,1.92,0,0,0,259,189.35Z" style="fill:#455a64;opacity:0.9"></path><path d="M259,241v21.45c0,.55.39.78.87.5a1.94,1.94,0,0,0,.86-1.5V240c0-.56-.39-.78-.86-.5A1.89,1.89,0,0,0,259,241Z" style="fill:#455a64;opacity:0.9"></path><path d="M253,318.62l89.1-51.44c1.19-.69,2.16-.13,2.16,1.25v13.76a4.8,4.8,0,0,1-2.16,3.75L253,337.38c-1.19.69-2.16.13-2.16-1.25V322.37A4.8,4.8,0,0,1,253,318.62Z" style="fill:#455a64"></path><path d="M259,329.75a.45.45,0,0,1-.25-.07.5.5,0,0,1-.25-.43v-9.38a.52.52,0,0,1,.25-.44l8.13-4.68a.5.5,0,0,1,.75.43v9.38a.5.5,0,0,1-.25.43l-8.13,4.69A.45.45,0,0,1,259,329.75Zm.5-9.59v8.22l7.13-4.11V316Z" style="fill:#FFC100"></path><path d="M259,326.37a.59.59,0,0,1-.26-.07.51.51,0,0,1-.18-.69l2.5-4.23a.52.52,0,0,1,.37-.24.5.5,0,0,1,.42.14l3.89,3.9a.5.5,0,0,1,0,.7.5.5,0,0,1-.71,0l-3.43-3.43-2.17,3.67A.51.51,0,0,1,259,326.37Z" style="fill:#FFC100"></path><path d="M263.17,323.78a.43.43,0,0,1-.19,0,.49.49,0,0,1-.27-.65l1.9-4.57a.5.5,0,0,1,.4-.3.49.49,0,0,1,.46.18l2,2.59a.51.51,0,0,1-.09.71.51.51,0,0,1-.7-.09l-1.49-1.92-1.58,3.79A.49.49,0,0,1,263.17,323.78Z" style="fill:#FFC100"></path><path d="M291.47,311a.5.5,0,0,1-.5-.5v-9.38a.5.5,0,0,1,.5-.5.5.5,0,0,1,.5.5v9.38A.51.51,0,0,1,291.47,311Z" style="fill:#FFC100"></path><path d="M291.47,307.47a.51.51,0,0,1-.44-.25.5.5,0,0,1,.19-.68l7.87-4.52V300.8l-7.37,4.26a.5.5,0,1,1-.5-.87l8.12-4.69a.5.5,0,0,1,.75.43v2.38a.5.5,0,0,1-.25.43l-8.12,4.66A.47.47,0,0,1,291.47,307.47Z" style="fill:#FFC100"></path><path d="M291.47,305.12a.5.5,0,0,1-.44-.24.52.52,0,0,1,.19-.69l5.08-2.95V300l-4.58,2.68a.5.5,0,1,1-.51-.86l5.34-3.13a.5.5,0,0,1,.5,0,.52.52,0,0,1,.25.44v2.37a.5.5,0,0,1-.25.43l-5.33,3.1A.57.57,0,0,1,291.47,305.12Z" style="fill:#FFC100"></path><path d="M291.47,309.87a.5.5,0,0,1-.44-.24.52.52,0,0,1,.18-.69l3.48-2v-1.22l-3,1.71a.5.5,0,1,1-.5-.86l3.72-2.15a.5.5,0,0,1,.75.44v2.37a.5.5,0,0,1-.24.43l-3.73,2.18A.57.57,0,0,1,291.47,309.87Z" style="fill:#FFC100"></path><path d="M309.29,296.44a1,1,0,0,1-.49-.13,1.42,1.42,0,0,1-.6-1.29,3.19,3.19,0,0,1,1.37-2.58,1.11,1.11,0,0,1,1.15-.06,1.4,1.4,0,0,1,.59,1.28,3.18,3.18,0,0,1-1.37,2.58A1.29,1.29,0,0,1,309.29,296.44Zm.94-3.44a.62.62,0,0,0-.29.09,2.48,2.48,0,0,0-1,1.93c0,.38.11.57.22.64a.43.43,0,0,0,.4-.07,2.44,2.44,0,0,0,1-1.93c0-.37-.11-.57-.22-.63A.2.2,0,0,0,310.23,293Z" style="fill:#FFC100"></path><path d="M309.76,300a.32.32,0,0,1-.19-.05l-.1-.06c-.8-.45-2.93-1.67-2.93-3.88a7.12,7.12,0,0,1,3-5.75,2.2,2.2,0,0,1,2.23-.15A2.9,2.9,0,0,1,313,292.7c0,2-1.82,5.21-2.69,6.74l-.2.34a.39.39,0,0,1-.22.18Zm1.12-9.38a2,2,0,0,0-.94.29,6.41,6.41,0,0,0-2.65,5.1c0,1.62,1.49,2.61,2.33,3.1h0c.78-1.36,2.6-4.55,2.6-6.37a2.19,2.19,0,0,0-.79-2A1.15,1.15,0,0,0,310.88,290.59Z" style="fill:#FFC100"></path><path d="M332.09,277.65c2.24-1.29,4.06-.24,4.06,2.35a9,9,0,0,1-4.06,7c-2.25,1.29-4.07.24-4.07-2.35A9,9,0,0,1,332.09,277.65Z" style="fill:#FFC100;opacity:0.5"></path><path d="M333.85,280.65l-1.33.77v-2.05c0-.37-.19-.55-.43-.42a1.17,1.17,0,0,0-.44.93v2.05l-1.33.77a1.13,1.13,0,0,0-.43.92c0,.37.19.55.43.42l1.33-.77v2.05c0,.37.2.55.44.42a1.17,1.17,0,0,0,.43-.93v-2.05l1.33-.77a1.14,1.14,0,0,0,.44-.92C334.29,280.7,334.09,280.52,333.85,280.65Z" style="fill:#455a64"></path><path d="M275.22,320.37a.45.45,0,0,1-.25-.07.48.48,0,0,1-.25-.43v-9.38a.52.52,0,0,1,.25-.44l8.12-4.69a.5.5,0,0,1,.75.44v9.38a.48.48,0,0,1-.25.43l-8.12,4.69A.47.47,0,0,1,275.22,320.37Zm.5-9.6V319l7.12-4.11v-8.23Z" style="fill:#FFC100"></path><path d="M276.72,314a2.9,2.9,0,0,1,.07-.6,2.22,2.22,0,0,1,.5-1,1.65,1.65,0,0,1,.43-.35.87.87,0,0,1,.47-.15.42.42,0,0,1,.3.1.49.49,0,0,1,.15.24,1.58,1.58,0,0,1,.06.26.23.23,0,0,1,0,.11.28.28,0,0,1-.06.08l-.27.15s0,0-.06,0l0-.05,0-.06a.14.14,0,0,0-.08-.09.29.29,0,0,0-.16,0,.48.48,0,0,0-.25.08,1,1,0,0,0-.4.43,1.56,1.56,0,0,0-.16.65v.83c0,.27.06.45.16.52s.23.05.4,0a1.18,1.18,0,0,0,.22-.17,1.08,1.08,0,0,0,.18-.24.89.89,0,0,0,.11-.3,1.62,1.62,0,0,0,0-.4v0l-.41.24a0,0,0,0,1-.06,0,.1.1,0,0,1,0-.08v-.36a.2.2,0,0,1,0-.11.18.18,0,0,1,.06-.08l.76-.44a.06.06,0,0,1,.07,0,.13.13,0,0,1,0,.08v.56a3.05,3.05,0,0,1-.06.6,2.76,2.76,0,0,1-.19.55,2.13,2.13,0,0,1-.31.47,1.83,1.83,0,0,1-.44.35.89.89,0,0,1-.44.15.43.43,0,0,1-.31-.1.75.75,0,0,1-.18-.33,2,2,0,0,1-.07-.53,1.34,1.34,0,0,1,0-.21v-.47A1.55,1.55,0,0,1,276.72,314Z" style="fill:#FFC100"></path><path d="M279.31,314.77s-.05,0-.06,0a.1.1,0,0,1,0-.08V311.4a.27.27,0,0,1,0-.12.11.11,0,0,1,.06-.07l.27-.16a0,0,0,0,1,.06,0s0,0,0,.08v3.28a.2.2,0,0,1,0,.11.18.18,0,0,1-.06.08Z" style="fill:#FFC100"></path><path d="M281.76,309.79a.08.08,0,0,1,.07,0,.2.2,0,0,1,0,.09v.36a.52.52,0,0,1,0,.11.19.19,0,0,1-.07.08l-1.05.6v1l1-.57h.06a.12.12,0,0,1,0,.09v.36a.26.26,0,0,1,0,.11.28.28,0,0,1-.06.08l-1,.57v1.16a.23.23,0,0,1,0,.11.17.17,0,0,1-.06.08l-.27.15a0,0,0,0,1-.06,0,.11.11,0,0,1,0-.08v-3.29a.26.26,0,0,1,0-.11.28.28,0,0,1,.06-.08Z" style="fill:#FFC100"></path></g></svg>