<svg xmlns="http://www.w3.org/2000/svg" viewBox="0 0 500 500"><g id="freepik--background-complete--inject-202"><path d="M82.59,327.06l-13.12.27-6.66.12c-2.23,0-4.47,0-6.7.05h-.44v-.44l-.06-11.19v-.51h.5l13.24.06c4.42,0,8.83.11,13.24.16h.28v.27c0,1.89-.09,3.78-.13,5.65Zm0,0-.14-5.66c0-1.86-.11-3.7-.13-5.53l.27.27c-4.41.05-8.82.16-13.24.16l-13.24.07.5-.5,0,11.19-.45-.45c2.18,0,4.36,0,6.55.05l6.58.12Z" style="fill:#ebebeb"></path><path d="M67.82,341.17l-13.12.27-6.66.12c-2.23,0-4.47,0-6.7.05H40.9v-.44L40.84,330v-.51h.5l13.24.06c4.41,0,8.83.11,13.24.16h.28V330c0,1.89-.08,3.78-.13,5.65Zm0,0-.14-5.66c-.05-1.86-.11-3.7-.13-5.53l.27.27c-4.41.05-8.83.16-13.24.16l-13.24.06.5-.49-.05,11.19-.45-.45c2.18,0,4.36,0,6.55,0l6.58.12Z" style="fill:#ebebeb"></path><path d="M406.5,202.49l-13.12.28-6.66.11c-2.23.05-4.47,0-6.7.06h-.44v-.45l-.06-11.19v-.5h.5l13.24.07c4.42,0,8.83.11,13.24.16h.28v.27c0,1.9-.09,3.79-.14,5.66Zm0,0-.14-5.65c0-1.86-.11-3.71-.13-5.54l.27.28c-4.41,0-8.82.15-13.24.16L380,191.8l.5-.5,0,11.19-.45-.44c2.18,0,4.36,0,6.55,0l6.58.11Z" style="fill:#ebebeb"></path><path d="M391.73,216.6l-13.12.28L372,217c-2.23,0-4.47,0-6.7.06h-.44v-.45l-.05-11.19v-.5h.5l13.24.07c4.41,0,8.83.11,13.24.16H392v.27c0,1.9-.08,3.79-.13,5.66Zm0,0-.14-5.65c0-1.86-.11-3.71-.13-5.54l.27.28c-4.41.05-8.83.15-13.24.16l-13.24.06.5-.5-.05,11.19-.45-.44c2.18,0,4.36,0,6.55.05l6.58.11Z" style="fill:#ebebeb"></path><path d="M377,202.49l-13.13.28-6.66.11c-2.22.05-4.46,0-6.69.06h-.45v-.45l0-11.19v-.5h.51l13.24.07c4.41,0,8.82.11,13.24.16h.27v.27c0,1.9-.09,3.79-.13,5.66Zm0,0-.14-5.65c-.05-1.86-.12-3.71-.14-5.54l.28.28c-4.42,0-8.83.15-13.24.16l-13.24.06.5-.5L351,202.49l-.44-.44c2.18,0,4.35,0,6.54,0l6.58.11Z" style="fill:#ebebeb"></path><path d="M458.66,341.17l-13.13.27-6.66.12c-2.22,0-4.46,0-6.69.05h-.45v-.44L431.68,330v-.51h.5l13.24.06c4.41,0,8.83.11,13.24.16h.27V330c0,1.89-.08,3.78-.13,5.65Zm0,0-.14-5.66c0-1.86-.12-3.7-.13-5.53l.27.27c-4.41.05-8.83.16-13.24.16l-13.24.06.5-.49-.06,11.19-.44-.45c2.18,0,4.36,0,6.54,0l6.58.12Z" style="fill:#ebebeb"></path><path d="M443.89,67.49l-13.13.27-6.66.12c-2.22,0-4.46,0-6.69.05H417v-.45l0-11.19v-.51h.51l13.24.06c4.41,0,8.82.11,13.24.16h.27v.27c0,1.9-.09,3.78-.13,5.65Zm0,0-.14-5.66c-.05-1.86-.12-3.7-.14-5.53l.28.27c-4.42,0-8.83.16-13.24.16l-13.24.07.5-.5-.06,11.19-.44-.45c2.18,0,4.35,0,6.54.06l6.58.11Z" style="fill:#ebebeb"></path><path d="M458.66,81.6l-13.13.27-6.66.12c-2.22,0-4.46,0-6.69.05h-.45V81.6l-.05-11.19V69.9h.5l13.24.06c4.41,0,8.83.11,13.24.16h.27v.27c0,1.89-.08,3.78-.13,5.65Zm0,0-.14-5.66c0-1.86-.12-3.7-.13-5.53l.27.27c-4.41,0-8.83.16-13.24.16l-13.24.07.5-.5-.06,11.19-.44-.45c2.18,0,4.36,0,6.54.06l6.58.11Z" style="fill:#ebebeb"></path><path d="M82.59,67.49l-13.12.27-6.66.12c-2.23,0-4.47,0-6.7.05h-.44v-.45L55.61,56.3v-.51h.5l13.24.06c4.42,0,8.83.11,13.24.16h.28v.27c0,1.9-.09,3.78-.13,5.65Zm0,0-.14-5.66c0-1.86-.11-3.7-.13-5.53l.27.27c-4.41,0-8.82.16-13.24.16l-13.24.07.5-.5,0,11.19L56.11,67c2.18,0,4.36,0,6.55.06l6.58.11Z" style="fill:#ebebeb"></path><path d="M444.17,262.46l5.5-8.88L447,251.9a2.47,2.47,0,0,1-1.15-2.33,13.65,13.65,0,0,0,.05-1.57,2.48,2.48,0,0,1,1.3-2.25l2.81-1.51L445,235l-2.82,1.52a2.49,2.49,0,0,1-2.59-.17,13.23,13.23,0,0,0-1.33-.82A2.49,2.49,0,0,1,437,233.3l.1-3.19-10.44-.33-.09,3.21a2.49,2.49,0,0,1-1.46,2.16l-.69.35-.66.38a2.51,2.51,0,0,1-2.6,0l-2.73-1.7-5.51,8.88,2.72,1.69a2.45,2.45,0,0,1,1.15,2.33c0,.52-.06,1,0,1.56a2.49,2.49,0,0,1-1.29,2.25l-2.82,1.51,4.94,9.21,2.81-1.52a2.51,2.51,0,0,1,2.6.17,13.82,13.82,0,0,0,1.32.82,2.47,2.47,0,0,1,1.31,2.25l-.1,3.2,10.44.33.1-3.21a2.47,2.47,0,0,1,1.45-2.15l.69-.35c.23-.12.45-.25.67-.38a2.5,2.5,0,0,1,2.61,0Zm-8.84-6.59a8.56,8.56,0,1,1,3.5-11.58A8.55,8.55,0,0,1,435.33,255.87Z" style="fill:#dbdbdb"></path><path d="M152.31,128.2l-3.65-6.34L146.72,123a1.73,1.73,0,0,1-1.82-.06,10,10,0,0,0-1-.54,1.73,1.73,0,0,1-1-1.55v-2.24h-7.32v2.24a1.75,1.75,0,0,1-1,1.55,8,8,0,0,0-1,.54,1.73,1.73,0,0,1-1.82.06L130,121.86l-3.66,6.34,1.95,1.12a1.76,1.76,0,0,1,.85,1.62c0,.17,0,.35,0,.53s0,.36,0,.54a1.74,1.74,0,0,1-.85,1.61l-1.95,1.13,3.66,6.34,1.94-1.13a1.75,1.75,0,0,1,1.82.07,8.92,8.92,0,0,0,1,.54,1.75,1.75,0,0,1,1,1.55v2.24H143v-2.24a1.73,1.73,0,0,1,1-1.55,8.78,8.78,0,0,0,.94-.54,1.75,1.75,0,0,1,1.82-.07l1.95,1.13,3.65-6.34-1.94-1.12a1.75,1.75,0,0,1-.85-1.61c0-.18,0-.36,0-.55s0-.36,0-.53a1.76,1.76,0,0,1,.85-1.62Zm-7,3.27a6,6,0,1,1-6-6A6,6,0,0,1,145.32,131.47Z" style="fill:#dbdbdb"></path><path d="M85.31,163.32a28.5,28.5,0,1,0,28.49,28.5A28.5,28.5,0,0,0,85.31,163.32Zm0,41.8a13.31,13.31,0,1,1,13.3-13.3A13.3,13.3,0,0,1,85.31,205.12Z" style="fill:#ebebeb"></path><polygon points="90.78 164.5 79.83 164.5 80.43 156.75 90.18 156.75 90.78 164.5" style="fill:#ebebeb"></polygon><polygon points="69.93 168.2 62.18 175.94 57.13 170.03 64.02 163.14 69.93 168.2" style="fill:#ebebeb"></polygon><polygon points="57.79 185.55 57.79 196.51 50.04 195.9 50.04 186.16 57.79 185.55" style="fill:#ebebeb"></polygon><polygon points="61.48 206.41 69.23 214.16 63.32 219.21 56.43 212.32 61.48 206.41" style="fill:#ebebeb"></polygon><polygon points="78.84 218.54 89.8 218.54 89.19 226.3 79.45 226.3 78.84 218.54" style="fill:#ebebeb"></polygon><polygon points="99.7 214.85 107.44 207.1 112.5 213.02 105.61 219.91 99.7 214.85" style="fill:#ebebeb"></polygon><polygon points="111.83 197.5 111.83 186.54 119.59 187.14 119.59 196.89 111.83 197.5" style="fill:#ebebeb"></polygon><polygon points="108.14 176.64 100.39 168.89 106.31 163.84 113.2 170.73 108.14 176.64" style="fill:#ebebeb"></polygon><path d="M376.69,40.27a28.49,28.49,0,1,0,28.5,28.49A28.49,28.49,0,0,0,376.69,40.27Zm0,41.79A13.31,13.31,0,1,1,390,68.76,13.29,13.29,0,0,1,376.69,82.06Z" style="fill:#ebebeb"></path><polygon points="382.17 41.45 371.22 41.45 371.82 33.69 381.57 33.69 382.17 41.45" style="fill:#ebebeb"></polygon><polygon points="361.32 45.14 353.57 52.89 348.51 46.97 355.4 40.08 361.32 45.14" style="fill:#ebebeb"></polygon><polygon points="349.18 62.49 349.18 73.45 341.43 72.85 341.43 63.1 349.18 62.49" style="fill:#ebebeb"></polygon><polygon points="352.87 83.35 360.62 91.1 354.71 96.15 347.82 89.26 352.87 83.35" style="fill:#ebebeb"></polygon><polygon points="370.23 95.49 381.19 95.49 380.58 103.24 370.84 103.24 370.23 95.49" style="fill:#ebebeb"></polygon><polygon points="391.08 91.8 398.83 84.05 403.89 89.96 397 96.85 391.08 91.8" style="fill:#ebebeb"></polygon><polygon points="403.22 74.44 403.22 63.48 410.98 64.09 410.98 73.83 403.22 74.44" style="fill:#ebebeb"></polygon><polygon points="399.53 53.58 391.78 45.84 397.69 40.78 404.59 47.67 399.53 53.58" style="fill:#ebebeb"></polygon></g><g id="freepik--Shadow--inject-202"><ellipse cx="250" cy="451.73" rx="198.31" ry="22.89" style="fill:#ebebeb"></ellipse></g><g id="freepik--Floor--inject-202"><polygon points="41.49 406.44 93.62 406.2 145.75 406.11 250 405.95 354.25 406.11 406.38 406.2 458.51 406.44 406.38 406.69 354.25 406.78 250 406.94 145.75 406.78 93.62 406.69 41.49 406.44" style="fill:#263238"></polygon></g><g id="freepik--Plant--inject-202"><path d="M89.39,292.4a44.92,44.92,0,0,1-.88,17.32,46.54,46.54,0,0,1-2.65,7.66c-1.38,3.17-2.82,6.27-2.47,9.74.33.22-.82.18-.85-.15-9.27-5.28-21.16-6.25-28.29-14.88-3.38-4.08-5.08-9.26-5.89-14.44-.88-5.64-1.12-11.88.33-17.44,1.23-4.7,4-9.24,8.39-11.54,4.56-2.37,10.54-2.18,15.34-.68C82.78,271.2,87.93,282.38,89.39,292.4Z" style="fill:#C53F3F"></path><path d="M94.15,361c-1.27-4.21-2.53-8.43-3.83-12.64-2.54-8.23-5.19-16.44-8.11-24.55q-2.62-7.29-5.55-14.44a85.62,85.62,0,0,1,1.11-9c.77-3.59,1.9-7.06,3-10.58.06-.21-.29-.33-.38-.12-2.08,4.84-4.8,11-4.86,16.78-2.27-5.39-4.68-10.71-7.29-15.95a68.71,68.71,0,0,1,.41-13.28c0-.2-.28-.26-.31-.06a46.89,46.89,0,0,0-.91,11.73q-3-5.91-6.32-11.65c-.21-.34-.68,0-.51.35,3.49,6.71,6.72,13.55,9.75,20.49a44.57,44.57,0,0,0-14.53-8.41c-.23-.09-.41.25-.17.35a52.81,52.81,0,0,1,15.72,10.4q3.27,7.62,6.23,15.37c-5.8-5.69-13.74-9.43-21.42-11.44-.26-.06-.33.34-.07.41,8.88,2.68,15.78,7.71,22.54,13.76q1.17,3.14,2.31,6.28,4.29,11.91,8.17,24,1.88,5.78,3.68,11.57c1.3,4.16,2.31,8.54,4,12.56.16.38.85.29.76-.17A121.33,121.33,0,0,0,94.15,361Z" style="fill:#263238"></path><path d="M78.77,284.29a23,23,0,0,0-3.33,8.32c0,.07.1.12.13,0a71.55,71.55,0,0,1,3.62-8.16C79.33,284.22,78.93,284.05,78.77,284.29Z" style="fill:#263238"></path><path d="M62.24,303.6a24.3,24.3,0,0,0-8.32-2.8c-.07,0-.12.1,0,.13,1.33.55,2.74.94,4.09,1.46S60.66,303.55,62,304A.24.24,0,0,0,62.24,303.6Z" style="fill:#263238"></path><path d="M57.58,280.37a16.48,16.48,0,0,0-2.67-1.66.15.15,0,0,0-.16.24,16.57,16.57,0,0,0,2.64,1.71C57.56,280.76,57.75,280.48,57.58,280.37Z" style="fill:#263238"></path><path d="M120.64,323.88c-6.68,2-13.39,3.81-20.06,5.77-.58.18-11.87-21.45-7.79-32.59,3.77-10.31,12.4-18,22.69-21.53,4.77-1.62,10.63-3,15.66-1.87,4.48,1,7.64,4.66,9.1,8.87,2,5.72,1.32,12.55.24,18.39a32.07,32.07,0,0,1-6.57,15C130.37,320.14,125.84,322.34,120.64,323.88Z" style="fill:#C53F3F"></path><path d="M130.32,303.33a89.84,89.84,0,0,1-13.09,5.15,55.42,55.42,0,0,0-8.74,3.16c2.82-6.28,5.91-12.43,9.2-18.53,4.31-1.25,8.84-3.2,12.1-6.25a.19.19,0,0,0-.25-.28c-3.55,2.51-7.48,4-11.41,5.72.89-1.64,1.78-3.28,2.7-4.91.25-.46-.38-.91-.68-.47a141.18,141.18,0,0,0-9.49,15.93,72.55,72.55,0,0,1-.68-14.59.1.1,0,0,0-.2,0,48.79,48.79,0,0,0,.17,16c-2.34,4.67-4.48,9.46-6.39,14.31-.77-2.91-1.75-5.78-2.41-8.72a39.7,39.7,0,0,1-1-12.85c0-.12-.18-.13-.2,0a45.41,45.41,0,0,0,2.8,23.59c-1.11,2.92-2.18,5.84-3.15,8.78a174.6,174.6,0,0,0-8.86,46.31.28.28,0,0,0,.56.05,230.41,230.41,0,0,1,10-45.78c1.94-5.82,4.16-11.47,6.61-17,3.94-1.17,7.87-2.75,11.74-4.09s7.65-2.82,10.83-5.31C130.59,303.46,130.45,303.26,130.32,303.33Z" style="fill:#263238"></path><path d="M136.54,297.05c-4.08,1.45-7.95,3.48-12,4.95-.19.07-.08.37.11.33,4.32-.89,8.6-2.22,12.08-5.05C136.83,297.17,136.68,297,136.54,297.05Z" style="fill:#263238"></path><path d="M103.2,288.24c0-.22-.26-.34-.33-.12-1.12,3.76-1.89,7.76-.8,11.6,0,.15.28.16.29,0C102.55,295.83,102.34,292.06,103.2,288.24Z" style="fill:#263238"></path><path d="M120.07,279.54a10,10,0,0,0-1.77,6.4c0,.15.24.23.28.06.49-2.15,1.33-4.11,2-6.2A.29.29,0,0,0,120.07,279.54Z" style="fill:#263238"></path><path d="M41.23,333.42c2,6.21,6.61,14.79,14,14.86,4.77.05,9.58-.52,14.36-.59,5.13-.07,10.26-.06,15.38.24.42,0-.62-15.34-12.93-22.83-3.45-2.09-7.67-2.76-11.59-3.61a53.46,53.46,0,0,0-13.69-1.42c-2.82.11-5.18.71-6.18,3.61S40.3,330.46,41.23,333.42Z" style="fill:#C53F3F"></path><path d="M46.53,325.64c3,.77,6,1.66,9,2.61a33.34,33.34,0,0,0-2.48-2.42c-1.29-1.07-2.71-1.93-4.1-2.87-.11-.08,0-.3.11-.24a16.87,16.87,0,0,1,7.26,5.78c3.74,1.21,7.45,2.54,11,4a41.48,41.48,0,0,1,7.06,3.71,28.75,28.75,0,0,0-2.56-4.44c-1.63-2.12-3.84-3.3-6-4.8a.19.19,0,0,1,.19-.33,17.55,17.55,0,0,1,9.61,10.41,41.64,41.64,0,0,1,7,6.35c8.15,9.25,14.57,21.57,14.59,34.14,0,.3-.48.38-.54.07a69.63,69.63,0,0,0-15.54-33.38c-.58-.68-1.18-1.33-1.79-2a58.1,58.1,0,0,0-6.73-.5c-2.62,0-5.22.39-7.84.6-4.29.35-9.05.4-12.93-1.76-.17-.1-.05-.4.14-.33,8.64,3.15,17.71-.84,26.38,1a40.74,40.74,0,0,0-12.78-8.24l-.8-.32c-5.55.67-11.4,2.12-16.81.31-.16-.05-.09-.3.07-.25,5.23,1.3,10.23-.34,15.39-.6-5.62-2.18-11.33-3.92-17-6.09C46,326,46,325.51,46.53,325.64Z" style="fill:#263238"></path><path d="M44.09,331.11a75.16,75.16,0,0,0,8.07.61c.06,0,.08.1,0,.11a16.7,16.7,0,0,1-8.15-.52A.1.1,0,0,1,44.09,331.11Z" style="fill:#263238"></path><path d="M62.33,325.78a13.22,13.22,0,0,1,4,2.78c.15.12,0,.38-.2.26-.68-.49-1.37-.95-2.08-1.41a18.8,18.8,0,0,1-2-1.23C61.91,326,62.11,325.7,62.33,325.78Z" style="fill:#263238"></path><path d="M105.82,345.78c-.09.2.2.39.31.18h0a.29.29,0,0,0,.19.12,124.2,124.2,0,0,0,15,2.63c4.08.36,8.77.59,12.33-1.78,4.84-3.2,8-11.76,5.4-17.21-3.09-6.46-12.4-2.95-17.07-.65A34.24,34.24,0,0,0,105.82,345.78Z" style="fill:#C53F3F"></path><path d="M102.2,348.76a47.93,47.93,0,0,1,9-6.83,30.69,30.69,0,0,1,9.11-9.29c.18-.12.33.16.16.28a41,41,0,0,0-7.67,8.08,83.68,83.68,0,0,1,11.27-5.13,15,15,0,0,1,6.05-6.06s.12,0,.07.08a24.8,24.8,0,0,0-5.47,5.74c2.29-.86,4.6-1.65,6.91-2.42.21-.07.29.25.09.32-4.11,1.61-8.32,3.31-12.4,5.26a47.9,47.9,0,0,0,15,0c.14,0,.2.17.06.21a29.62,29.62,0,0,1-15.93.24,74.27,74.27,0,0,0-7.56,4.23,19.24,19.24,0,0,1,6.11.5,46.72,46.72,0,0,0,10.73,1.22c.14,0,.17.22,0,.24-6.22,1.07-12.11-1.76-18.28-1a46.93,46.93,0,0,0-6.43,5.25,48.5,48.5,0,0,0-9.38,13.23c-2.59,5.28-4,10.89-6.1,16.35a.2.2,0,0,1-.39-.1C89,368.32,94.36,356.44,102.2,348.76Z" style="fill:#263238"></path><path d="M121,334a7,7,0,0,1,1.59-1.93,6.35,6.35,0,0,1,1.84-1.38.06.06,0,0,1,.06.1c-.51.58-1.22,1-1.77,1.56s-1,1.22-1.58,1.76A.09.09,0,0,1,121,334Z" style="fill:#263238"></path><path d="M131.26,337.34c.92-.24,1.9-.22,2.84-.41a24.15,24.15,0,0,0,2.75-.83.11.11,0,0,1,.08.21,9.16,9.16,0,0,1-5.67,1.32A.15.15,0,0,1,131.26,337.34Z" style="fill:#263238"></path><polygon points="76.55 365.82 77.36 375.1 80.14 406.44 104.68 406.44 108.15 375.1 109.17 365.82 76.55 365.82" style="fill:#455a64"></polygon><polygon points="76.55 365.82 77.36 375.1 108.15 375.1 109.17 365.82 76.55 365.82" style="fill:#263238"></polygon><rect x="74.12" y="363.29" width="37.49" height="7.53" transform="translate(185.72 734.11) rotate(180)" style="fill:#455a64"></rect></g><g id="freepik--Device--inject-202"><path d="M334.52,52.69H165.46a17.26,17.26,0,0,0-17.1,17.42v348a17.27,17.27,0,0,0,17.1,17.42H334.52a17.29,17.29,0,0,0,17.12-17.42v-348A17.28,17.28,0,0,0,334.52,52.69Zm6.42,354.67c0,9.16-6.86,16.57-15.32,16.57H174.38c-8.48,0-15.34-7.41-15.34-16.57V83.3c0-18.66,6.86-19.57,15.34-19.57h30.3c1.76,0,3.2,2,3.2,4.48v1.07c0,5.81,3.18,5.83,7.08,5.83H285c3.94,0,7.1,0,7.1-5.83V68.21c0-2.48,1.42-4.48,3.21-4.48h30.29c8.46,0,15.32,2.48,15.32,19.57Z" style="fill:#263238"></path><path d="M340.94,83.3V407.36c0,9.16-6.86,16.57-15.32,16.57H174.38c-8.48,0-15.34-7.41-15.34-16.57V83.3c0-18.66,6.86-19.57,15.34-19.57h30.3c1.76,0,3.2,2,3.2,4.48v1.07c0,5.81,3.18,5.83,7.08,5.83H285c3.94,0,7.1,0,7.1-5.83V68.21c0-2.48,1.42-4.48,3.21-4.48h30.29C334.08,63.73,340.94,66.21,340.94,83.3Z" style="fill:#fff"></path><path d="M340.94,83.3v36.49H159V83.3c0-18.66,6.86-19.57,15.34-19.57h30.3c1.76,0,3.2,2,3.2,4.48v1.07c0,5.81,3.18,5.83,7.08,5.83H285c3.94,0,7.1,0,7.1-5.83V68.21c0-2.48,1.42-4.48,3.21-4.48h30.29C334.08,63.73,340.94,66.21,340.94,83.3Z" style="fill:#C53F3F"></path><g id="freepik--u5Zjqx--inject-202"><path d="M199.45,71l-.29.29c-.06,0-.11.11-.17.17a4,4,0,0,0-5.64,0l-.16-.17L192.9,71h0l0,0,.37-.32a4.06,4.06,0,0,1,.86-.55,4.18,4.18,0,0,1,1.13-.38c.19,0,.38,0,.57-.08s.48,0,.5,0l.38,0a4.51,4.51,0,0,1,1,.25,4.58,4.58,0,0,1,.71.33,5.35,5.35,0,0,1,.67.47l.31.28Z" style="fill:#fff"></path><path d="M194.27,72.39c-.15-.16-.3-.31-.46-.46a3.32,3.32,0,0,1,4.71,0l-.46.46a2.61,2.61,0,0,0-1.89-.78A2.66,2.66,0,0,0,194.27,72.39Z" style="fill:#fff"></path><path d="M197.6,72.85l-.46.46a1.38,1.38,0,0,0-1.94,0l-.46-.46A2,2,0,0,1,197.6,72.85Z" style="fill:#fff"></path><path d="M196.58,73.73a.41.41,0,0,1-.41.41.42.42,0,1,1,0-.83A.41.41,0,0,1,196.58,73.73Z" style="fill:#fff"></path></g><path d="M170.9,71.89a1.21,1.21,0,1,1,1.21,1.21A1.21,1.21,0,0,1,170.9,71.89Z" style="fill:#fff"></path><path d="M174.7,71.89a1.21,1.21,0,1,1,1.21,1.21A1.21,1.21,0,0,1,174.7,71.89Z" style="fill:#fff"></path><path d="M178.5,71.89a1.21,1.21,0,1,1,1.2,1.21A1.2,1.2,0,0,1,178.5,71.89Z" style="fill:#fff"></path><path d="M182.3,71.89a1.21,1.21,0,1,1,1.2,1.21A1.2,1.2,0,0,1,182.3,71.89Z" style="fill:#fff"></path><path d="M186.09,71.89a1.21,1.21,0,1,1,1.21,1.21A1.21,1.21,0,0,1,186.09,71.89Z" style="fill:#fff"></path><path d="M327.3,74.52h-9.82V70h9.82ZM318,74h8.82V70.48H318Z" style="fill:#fff"></path><rect x="318.3" y="70.75" width="6.33" height="3" style="fill:#fff"></rect><rect x="327.3" y="71.04" width="0.87" height="2.43" style="fill:#fff"></rect><polygon points="175.62 109.55 170.25 104.51 175.62 99.47 176.46 100.36 172.03 104.51 176.46 108.66 175.62 109.55" style="fill:#fff"></polygon><path d="M228.45,106.14a.46.46,0,0,1,.64-.06,2.86,2.86,0,0,0,1.67.67,1.94,1.94,0,0,0,1.1-.32.78.78,0,0,0,.37-.63.42.42,0,0,0-.08-.28.81.81,0,0,0-.26-.27,3.68,3.68,0,0,0-1.2-.41h0a4.81,4.81,0,0,1-1.13-.34,1.93,1.93,0,0,1-.81-.68,1.37,1.37,0,0,1-.2-.72,1.62,1.62,0,0,1,.7-1.28,2.57,2.57,0,0,1,1.51-.46,3.38,3.38,0,0,1,1.91.7.44.44,0,0,1,.13.62.45.45,0,0,1-.63.13,2.49,2.49,0,0,0-1.41-.56,1.65,1.65,0,0,0-1,.3.71.71,0,0,0-.33.55.51.51,0,0,0,.06.25.88.88,0,0,0,.24.22,3,3,0,0,0,1.09.39h0a5.06,5.06,0,0,1,1.21.37,2.08,2.08,0,0,1,.88.72,1.46,1.46,0,0,1,.21.75,1.71,1.71,0,0,1-.76,1.36,2.78,2.78,0,0,1-1.62.5,3.82,3.82,0,0,1-2.24-.88A.47.47,0,0,1,228.45,106.14Z" style="fill:#fff"></path><path d="M234.49,107.18V102a.47.47,0,0,1,.48-.48h2.86a.48.48,0,0,1,.48.48.49.49,0,0,1-.48.49h-2.37v1.61h2a.49.49,0,0,1,0,1h-2v1.61h2.37a.49.49,0,0,1,0,1H235A.48.48,0,0,1,234.49,107.18Z" style="fill:#fff"></path><path d="M243.43,102.5H242v4.68a.49.49,0,0,1-1,0V102.5h-1.38a.48.48,0,0,1-.48-.49.47.47,0,0,1,.48-.48h3.74a.48.48,0,0,1,.48.48A.49.49,0,0,1,243.43,102.5Z" style="fill:#fff"></path><path d="M249.11,102.5h-1.4v4.68a.47.47,0,0,1-.48.48.48.48,0,0,1-.48-.48V102.5h-1.38a.48.48,0,0,1-.49-.49.48.48,0,0,1,.49-.48h3.74a.48.48,0,0,1,.48.48A.49.49,0,0,1,249.11,102.5Z" style="fill:#fff"></path><path d="M251.09,102a.48.48,0,0,1,.49-.48.49.49,0,0,1,.49.48v5.17a.49.49,0,0,1-.49.48.48.48,0,0,1-.49-.48Z" style="fill:#fff"></path><path d="M254.67,107.18a.48.48,0,1,1-1,0v-5.09h0a.51.51,0,0,1,.2-.4.48.48,0,0,1,.66.11l2.83,3.91v-3.61a.48.48,0,0,1,.48-.47.48.48,0,0,1,.48.47v5.09a.49.49,0,0,1-.48.48.48.48,0,0,1-.36-.17l0,0-2.8-3.89Z" style="fill:#fff"></path><path d="M259.75,104.52a3.19,3.19,0,0,1,3.23-3.16,3.22,3.22,0,0,1,2,.68.51.51,0,0,1,.1.71.52.52,0,0,1-.71.08,2.29,2.29,0,0,0-1.39-.48,2.16,2.16,0,0,0-1.57.64,2.08,2.08,0,0,0,0,3,2.16,2.16,0,0,0,1.57.64,2.43,2.43,0,0,0,1.2-.34v-1.2h-1.25a.51.51,0,0,1-.5-.5.49.49,0,0,1,.5-.49h1.74a.5.5,0,0,1,.51.49v1.94c0,.06,0,.1,0,.15l0,0h0a.42.42,0,0,1-.17.21,3.21,3.21,0,0,1-2,.68A3.18,3.18,0,0,1,259.75,104.52Z" style="fill:#fff"></path><path d="M267,106.14a.46.46,0,0,1,.64-.06,2.86,2.86,0,0,0,1.67.67,1.94,1.94,0,0,0,1.1-.32.78.78,0,0,0,.37-.63.49.49,0,0,0-.07-.28,1,1,0,0,0-.27-.27,3.68,3.68,0,0,0-1.2-.41h0a4.81,4.81,0,0,1-1.13-.34,1.93,1.93,0,0,1-.81-.68,1.37,1.37,0,0,1-.2-.72,1.62,1.62,0,0,1,.7-1.28,2.55,2.55,0,0,1,1.51-.46,3.38,3.38,0,0,1,1.91.7.45.45,0,1,1-.49.75,2.55,2.55,0,0,0-1.42-.56,1.65,1.65,0,0,0-1,.3.71.71,0,0,0-.33.55.51.51,0,0,0,.06.25.88.88,0,0,0,.24.22,3,3,0,0,0,1.09.39h0a5.06,5.06,0,0,1,1.21.37,2.08,2.08,0,0,1,.88.72,1.46,1.46,0,0,1,.21.75,1.71,1.71,0,0,1-.76,1.36,2.78,2.78,0,0,1-1.62.5,3.82,3.82,0,0,1-2.24-.88A.47.47,0,0,1,267,106.14Z" style="fill:#fff"></path><rect x="321.54" y="100.88" width="8.21" height="0.95" style="fill:#fff"></rect><rect x="321.54" y="104.03" width="8.21" height="0.95" style="fill:#fff"></rect><rect x="321.54" y="107.19" width="8.21" height="0.95" style="fill:#fff"></rect><circle cx="323.42" cy="101.36" r="1.42" style="fill:#fff"></circle><path d="M329,104.51a1.43,1.43,0,1,1-1.42-1.42A1.42,1.42,0,0,1,329,104.51Z" style="fill:#fff"></path><circle cx="324.73" cy="107.66" r="1.42" style="fill:#fff"></circle><path d="M259.55,67.85H240.44a1.18,1.18,0,0,1-1.18-1.18h0a1.18,1.18,0,0,1,1.18-1.18h19.11a1.18,1.18,0,0,1,1.18,1.18h0A1.18,1.18,0,0,1,259.55,67.85Z" style="fill:#fff"></path><path d="M261.78,171.42a21.18,21.18,0,0,1-6.23,2.61,21.6,21.6,0,1,1,6.23-2.61Z" style="fill:#455a64"></path><path d="M257,150.58a6.58,6.58,0,1,1-6.58-6.57A6.58,6.58,0,0,1,257,150.58Z" style="fill:#fff"></path><path d="M261.78,168.71v2.71a21.18,21.18,0,0,1-6.23,2.61,21.49,21.49,0,0,1-16.49-2.62v-2.7a11.36,11.36,0,1,1,22.72,0Z" style="fill:#fff"></path><path d="M266.8,165.09a8.38,8.38,0,1,0,8.38,8.38A8.38,8.38,0,0,0,266.8,165.09Zm0,12.29a3.92,3.92,0,1,1,3.91-3.91A3.91,3.91,0,0,1,266.8,177.38Z" style="fill:#C53F3F"></path><polygon points="268.41 165.44 265.19 165.44 265.37 163.16 268.23 163.16 268.41 165.44" style="fill:#C53F3F"></polygon><polygon points="262.28 166.52 260 168.8 258.51 167.06 260.54 165.03 262.28 166.52" style="fill:#C53F3F"></polygon><polygon points="258.71 171.63 258.71 174.85 256.43 174.67 256.43 171.8 258.71 171.63" style="fill:#C53F3F"></polygon><polygon points="259.8 177.76 262.07 180.04 260.34 181.52 258.31 179.5 259.8 177.76" style="fill:#C53F3F"></polygon><polygon points="264.9 181.33 268.12 181.33 267.94 183.61 265.08 183.61 264.9 181.33" style="fill:#C53F3F"></polygon><polygon points="271.03 180.24 273.31 177.96 274.8 179.7 272.77 181.73 271.03 180.24" style="fill:#C53F3F"></polygon><polygon points="274.6 175.14 274.6 171.91 276.88 172.09 276.88 174.96 274.6 175.14" style="fill:#C53F3F"></polygon><polygon points="273.51 169 271.24 166.73 272.98 165.24 275 167.27 273.51 169" style="fill:#C53F3F"></polygon><rect x="176.68" y="191.35" width="10.5" height="10.5" style="fill:#455a64"></rect><polygon points="195.45 206.59 211.44 206.4 227.42 206.3 259.38 206.21 291.35 206.3 307.34 206.4 323.32 206.59 307.34 206.77 291.35 206.88 259.38 206.96 227.42 206.87 211.44 206.77 195.45 206.59" style="fill:#ebebeb"></polygon><rect x="195.45" y="195.46" width="48.88" height="2.27" style="fill:#ebebeb"></rect><path d="M318.07,201.85H307.22A5.25,5.25,0,0,1,302,196.6h0a5.25,5.25,0,0,1,5.25-5.25h10.85a5.25,5.25,0,0,1,5.25,5.25h0A5.25,5.25,0,0,1,318.07,201.85Z" style="fill:#C53F3F"></path><path d="M322.29,196.6a4.21,4.21,0,1,1-4.21-4.21A4.2,4.2,0,0,1,322.29,196.6Z" style="fill:#fff"></path><rect x="176.68" y="211.11" width="10.5" height="10.5" style="fill:#37474f"></rect><polygon points="195.45 226.35 211.44 226.17 227.42 226.07 259.38 225.98 291.35 226.06 307.34 226.17 323.32 226.35 307.34 226.54 291.35 226.64 259.38 226.73 227.42 226.64 211.44 226.53 195.45 226.35" style="fill:#ebebeb"></polygon><rect x="195.45" y="215.22" width="48.88" height="2.27" style="fill:#ebebeb"></rect><path d="M318.07,221.61H307.22a5.25,5.25,0,0,1-5.25-5.25h0a5.25,5.25,0,0,1,5.25-5.25h10.85a5.25,5.25,0,0,1,5.25,5.25h0A5.25,5.25,0,0,1,318.07,221.61Z" style="fill:#C53F3F"></path><path d="M322.29,216.36a4.21,4.21,0,1,1-4.21-4.21A4.2,4.2,0,0,1,322.29,216.36Z" style="fill:#fff"></path><rect x="176.68" y="250.64" width="10.5" height="10.5" style="fill:#455a64"></rect><polygon points="195.45 265.88 211.44 265.7 227.42 265.6 259.38 265.51 291.35 265.6 307.34 265.7 323.32 265.88 307.34 266.07 291.35 266.17 259.38 266.26 227.42 266.17 211.44 266.07 195.45 265.88" style="fill:#ebebeb"></polygon><rect x="195.45" y="254.76" width="48.88" height="2.27" style="fill:#ebebeb"></rect><path d="M307.22,261.14h10.85a5.25,5.25,0,0,0,5.25-5.25h0a5.25,5.25,0,0,0-5.25-5.25H307.22a5.25,5.25,0,0,0-5.25,5.25h0A5.25,5.25,0,0,0,307.22,261.14Z" style="fill:#ebebeb"></path><path d="M303,255.89a4.21,4.21,0,1,0,4.21-4.2A4.21,4.21,0,0,0,303,255.89Z" style="fill:#fff"></path><rect x="176.68" y="270.41" width="10.5" height="10.5" style="fill:#37474f"></rect><polygon points="195.45 285.65 211.44 285.47 227.42 285.36 259.38 285.28 291.35 285.36 307.34 285.47 323.32 285.65 307.34 285.83 291.35 285.94 259.38 286.02 227.42 285.94 211.44 285.83 195.45 285.65" style="fill:#ebebeb"></polygon><rect x="195.45" y="274.52" width="48.88" height="2.27" style="fill:#ebebeb"></rect><path d="M318.07,280.91H307.22a5.25,5.25,0,0,1-5.25-5.25h0a5.25,5.25,0,0,1,5.25-5.25h10.85a5.25,5.25,0,0,1,5.25,5.25h0A5.25,5.25,0,0,1,318.07,280.91Z" style="fill:#C53F3F"></path><path d="M322.29,275.66a4.21,4.21,0,1,1-4.21-4.21A4.21,4.21,0,0,1,322.29,275.66Z" style="fill:#fff"></path><rect x="176.68" y="309.94" width="10.5" height="10.5" style="fill:#455a64"></rect><polygon points="195.45 325.18 211.44 325 227.42 324.9 259.38 324.81 291.35 324.89 307.34 325 323.32 325.18 307.34 325.37 291.35 325.47 259.38 325.56 227.42 325.47 211.44 325.37 195.45 325.18" style="fill:#ebebeb"></polygon><rect x="195.45" y="314.05" width="48.88" height="2.27" style="fill:#ebebeb"></rect><path d="M318.07,320.44H307.22a5.25,5.25,0,0,1-5.25-5.25h0a5.25,5.25,0,0,1,5.25-5.25h10.85a5.25,5.25,0,0,1,5.25,5.25h0A5.25,5.25,0,0,1,318.07,320.44Z" style="fill:#C53F3F"></path><path d="M322.29,315.19a4.21,4.21,0,1,1-4.21-4.21A4.2,4.2,0,0,1,322.29,315.19Z" style="fill:#fff"></path><rect x="176.68" y="329.71" width="10.5" height="10.5" style="fill:#37474f"></rect><polygon points="195.45 344.95 211.44 344.77 227.42 344.66 259.38 344.57 291.35 344.66 307.34 344.76 323.32 344.95 307.34 345.13 291.35 345.24 259.38 345.32 227.42 345.24 211.44 345.13 195.45 344.95" style="fill:#ebebeb"></polygon><rect x="195.45" y="333.82" width="48.88" height="2.27" style="fill:#ebebeb"></rect><path d="M318.07,340.21H307.22A5.25,5.25,0,0,1,302,335h0a5.25,5.25,0,0,1,5.25-5.25h10.85a5.25,5.25,0,0,1,5.25,5.25h0A5.25,5.25,0,0,1,318.07,340.21Z" style="fill:#C53F3F"></path><path d="M322.29,335a4.21,4.21,0,1,1-4.21-4.21A4.21,4.21,0,0,1,322.29,335Z" style="fill:#fff"></path><rect x="176.68" y="349.47" width="10.5" height="10.5" style="fill:#C53F3F"></rect><polygon points="195.45 364.71 211.44 364.53 227.42 364.43 259.38 364.34 291.35 364.43 307.34 364.53 323.32 364.71 307.34 364.9 291.35 365 259.38 365.09 227.42 365 211.44 364.9 195.45 364.71" style="fill:#ebebeb"></polygon><rect x="195.45" y="353.59" width="48.88" height="2.27" style="fill:#ebebeb"></rect><path d="M307.22,360h10.85a5.25,5.25,0,0,0,5.25-5.25h0a5.25,5.25,0,0,0-5.25-5.25H307.22a5.25,5.25,0,0,0-5.25,5.25h0A5.25,5.25,0,0,0,307.22,360Z" style="fill:#ebebeb"></path><circle cx="307.21" cy="354.72" r="4.21" style="fill:#fff"></circle><rect x="176.68" y="369.24" width="10.5" height="10.5" style="fill:#455a64"></rect><polygon points="195.45 384.48 211.44 384.3 227.42 384.19 259.38 384.11 291.35 384.19 307.34 384.3 323.32 384.48 307.34 384.66 291.35 384.77 259.38 384.86 227.42 384.77 211.44 384.66 195.45 384.48" style="fill:#ebebeb"></polygon><rect x="195.45" y="373.35" width="48.88" height="2.27" style="fill:#ebebeb"></rect><path d="M318.07,379.74H307.22a5.25,5.25,0,0,1-5.25-5.25h0a5.25,5.25,0,0,1,5.25-5.25h10.85a5.25,5.25,0,0,1,5.25,5.25h0A5.25,5.25,0,0,1,318.07,379.74Z" style="fill:#C53F3F"></path><path d="M322.29,374.49a4.21,4.21,0,1,1-4.21-4.21A4.21,4.21,0,0,1,322.29,374.49Z" style="fill:#fff"></path><rect x="176.68" y="230.88" width="10.5" height="10.5" style="fill:#C53F3F"></rect><polygon points="195.45 246.12 211.43 245.94 227.41 245.83 259.38 245.74 291.35 245.83 307.33 245.94 323.31 246.12 307.33 246.3 291.35 246.41 259.38 246.49 227.41 246.41 211.43 246.3 195.45 246.12" style="fill:#ebebeb"></polygon><rect x="195.45" y="234.99" width="48.88" height="2.27" style="fill:#ebebeb"></rect><path d="M318.07,241.38H307.22a5.25,5.25,0,0,1-5.25-5.25h0a5.25,5.25,0,0,1,5.25-5.25h10.85a5.26,5.26,0,0,1,5.25,5.25h0A5.26,5.26,0,0,1,318.07,241.38Z" style="fill:#C53F3F"></path><path d="M322.28,236.13a4.21,4.21,0,1,1-4.2-4.21A4.21,4.21,0,0,1,322.28,236.13Z" style="fill:#fff"></path><rect x="269.13" y="395.1" width="54.19" height="14.77" style="fill:#C53F3F"></rect><path d="M286.66,403.76a.42.42,0,0,1,.59-.06,2.72,2.72,0,0,0,1.55.63,1.76,1.76,0,0,0,1-.3.76.76,0,0,0,.35-.59.47.47,0,0,0-.08-.26.78.78,0,0,0-.24-.24,3.24,3.24,0,0,0-1.11-.38h0a4.61,4.61,0,0,1-1.05-.32,1.78,1.78,0,0,1-.75-.63,1.28,1.28,0,0,1-.19-.67,1.49,1.49,0,0,1,.65-1.18,2.38,2.38,0,0,1,1.41-.43,3.15,3.15,0,0,1,1.76.65.41.41,0,1,1-.46.69,2.38,2.38,0,0,0-1.3-.52,1.54,1.54,0,0,0-.91.28.64.64,0,0,0-.31.51.41.41,0,0,0,.05.23.89.89,0,0,0,.22.21,2.71,2.71,0,0,0,1,.36h0a4.34,4.34,0,0,1,1.12.34,1.88,1.88,0,0,1,.82.67,1.35,1.35,0,0,1,.19.69,1.56,1.56,0,0,1-.7,1.26,2.52,2.52,0,0,1-1.5.46,3.5,3.5,0,0,1-2.08-.81A.42.42,0,0,1,286.66,403.76Z" style="fill:#fff"></path><path d="M295,403.83h-2l-.39,1.06a.46.46,0,0,1-.42.28l-.16,0a.47.47,0,0,1-.27-.59l1.8-4.78a.44.44,0,0,1,.43-.28.45.45,0,0,1,.43.28l1.79,4.78a.46.46,0,0,1-.27.59l-.15,0a.44.44,0,0,1-.42-.28Zm-.34-.89-.65-1.75-.66,1.75Z" style="fill:#fff"></path><path d="M298.49,405.09s0,0-.05,0,0,0,0,0l0,0h0l0-.07-2-4.74a.42.42,0,0,1,.24-.57.44.44,0,0,1,.58.23l1.58,3.76,1.59-3.76a.44.44,0,0,1,.82.34l-2,4.74,0,.07h0l0,0,0,0-.05,0h0l-.07,0h-.36l-.07-.05Z" style="fill:#fff"></path><path d="M302.49,404.72v-4.79a.43.43,0,0,1,.44-.44h2.66a.44.44,0,0,1,.44.44.45.45,0,0,1-.44.46h-2.2v1.49h1.89a.45.45,0,1,1,0,.9h-1.89v1.49h2.2a.45.45,0,0,1,0,.9h-2.66A.44.44,0,0,1,302.49,404.72Z" style="fill:#fff"></path><rect x="176.68" y="395.1" width="54.19" height="14.77" style="fill:#ebebeb"></rect><path d="M186.81,404.72v-4.79a.44.44,0,0,1,.45-.44h1a2.84,2.84,0,0,1,0,5.68h-1A.45.45,0,0,1,186.81,404.72Zm.91-.45h.5a1.94,1.94,0,0,0,0-3.88h-.5Z" style="fill:#fff"></path><path d="M192.3,399.93a.44.44,0,0,1,.45-.44.45.45,0,0,1,.45.44v4.79a.45.45,0,0,1-.45.45.44.44,0,0,1-.45-.45Z" style="fill:#fff"></path><path d="M194.54,403.76a.43.43,0,0,1,.59-.06,2.75,2.75,0,0,0,1.56.63,1.73,1.73,0,0,0,1-.3.76.76,0,0,0,.35-.59.46.46,0,0,0-.07-.26.83.83,0,0,0-.25-.24,3.09,3.09,0,0,0-1.11-.38h0a4.52,4.52,0,0,1-1-.32,1.81,1.81,0,0,1-.76-.63,1.27,1.27,0,0,1-.18-.67,1.48,1.48,0,0,1,.64-1.18,2.4,2.4,0,0,1,1.41-.43,3.15,3.15,0,0,1,1.77.65.41.41,0,0,1,.11.57.4.4,0,0,1-.57.12,2.44,2.44,0,0,0-1.31-.52,1.56,1.56,0,0,0-.91.28.64.64,0,0,0-.31.51.41.41,0,0,0,.06.23.74.74,0,0,0,.22.21,2.66,2.66,0,0,0,1,.36h0a4.59,4.59,0,0,1,1.12.34,1.91,1.91,0,0,1,.81.67,1.36,1.36,0,0,1,.2.69,1.59,1.59,0,0,1-.7,1.26,2.57,2.57,0,0,1-1.5.46,3.47,3.47,0,0,1-2.08-.81A.43.43,0,0,1,194.54,403.76Z" style="fill:#fff"></path><path d="M199.88,402.25a3,3,0,0,1,3-2.92,3,3,0,0,1,1.88.63.49.49,0,0,1,.08.65.48.48,0,0,1-.65.09,2,2,0,0,0-1.31-.45,2.13,2.13,0,0,0-1.46.59,2,2,0,0,0,0,2.82,2.13,2.13,0,0,0,1.46.59,2.06,2.06,0,0,0,1.31-.45.48.48,0,0,1,.65.09.49.49,0,0,1-.08.65,3,3,0,0,1-1.88.63A3,3,0,0,1,199.88,402.25Z" style="fill:#fff"></path><path d="M209.17,403.83h-2l-.4,1.06a.44.44,0,0,1-.42.28l-.16,0a.47.47,0,0,1-.26-.59l1.79-4.78a.44.44,0,0,1,.43-.28.43.43,0,0,1,.43.28l1.8,4.78a.47.47,0,0,1-.27.59l-.16,0a.42.42,0,0,1-.41-.28Zm-.33-.89-.66-1.75-.66,1.75Z" style="fill:#fff"></path><path d="M215.27,404.5a.44.44,0,0,1-.28.57l-.18,0h0a.59.59,0,0,1-.31-.09.7.7,0,0,1-.26-.28,2.13,2.13,0,0,1-.17-1,.69.69,0,0,0-.1-.35.76.76,0,0,0-.24-.23,1.57,1.57,0,0,0-.46-.2h-1v1.76a.45.45,0,0,1-.9,0v-4.79a.44.44,0,0,1,.45-.44h1.45a1.74,1.74,0,0,1,1.11,3.08,1.16,1.16,0,0,1,.28.3,1.52,1.52,0,0,1,.27.87,1.78,1.78,0,0,0,0,.48A.41.41,0,0,1,215.27,404.5Zm-1.13-3.27a.84.84,0,0,0-.84-.84h-1v1.67h1A.84.84,0,0,0,214.14,401.23Z" style="fill:#fff"></path><path d="M216.59,404.72v-4.79a.43.43,0,0,1,.45-.44h1a2.84,2.84,0,1,1,0,5.68h-1A.44.44,0,0,1,216.59,404.72Zm.9-.45h.5a1.94,1.94,0,1,0,0-3.88h-.5Z" style="fill:#fff"></path></g><g id="freepik--Character--inject-202"><rect x="373.3" y="235.36" width="70.16" height="14.53" style="fill:#c7c7c7"></rect><polygon points="392.13 249.77 390.17 268.34 365.92 442.17 358.98 442.17 378.12 268.34 379.68 249.77 392.13 249.77" style="fill:#c7c7c7"></polygon><polygon points="457.81 442.17 450.86 442.17 426.6 268.34 424.64 249.77 437.1 249.77 438.65 268.34 457.81 442.17" style="fill:#c7c7c7"></polygon><rect x="368.7" y="381.02" width="77.39" height="4.36" style="fill:#c7c7c7"></rect><polygon points="378.12 267.68 390.17 267.68 392.13 249.77 379.68 249.77 378.12 267.68" style="fill:#a6a6a6"></polygon><polygon points="438.65 267.68 426.6 267.68 424.64 249.77 437.1 249.77 438.65 267.68" style="fill:#a6a6a6"></polygon><path d="M334.28,403.14c2.46-.31,63.18-29.26,64.8-31.83.62-1-3.08-10.06-7.86-20.92-1-2.34-2.12-4.76-3.23-7.2-7.2-15.89-15.21-32.58-15.21-32.58l-40.67,19.25,16.32,32.05,3.58,7s-18.29,21.48-19.76,24.49S331.82,403.44,334.28,403.14Z" style="fill:#ad6359"></path><path d="M334.28,403.14c2.46-.31,63.18-29.26,64.8-31.83.75-1.19-4.87-14.36-11.09-28.12l-39.56,18.72,3.58,7s-18.29,21.48-19.76,24.49S331.82,403.44,334.28,403.14Z" style="fill:#fff"></path><path d="M334.28,403.14c2.46-.31,63.18-29.26,64.8-31.83.62-1-3.08-10.06-7.86-20.92L352,369s-18.29,21.48-19.76,24.49S331.82,403.44,334.28,403.14Z" style="fill:#C53F3F"></path><path d="M334,400.29c10.06-5.1,51.12-24.74,61.45-29,.09,0,.11,0,0,.06-9.86,5.28-51.07,24.58-61.4,29.13C333.86,400.55,333.78,400.4,334,400.29Z" style="fill:#263238"></path><path d="M335.11,389.39a9.07,9.07,0,0,1,7.28-.41,8.76,8.76,0,0,1,4.87,4.35c0,.06-.09.11-.13.05a10.48,10.48,0,0,0-12-3.86A.07.07,0,0,1,335.11,389.39Z" style="fill:#263238"></path><path d="M348.55,371.84c4-2,9.45-2.81,13.57-.68.16.08,0,.3-.11.3a62.33,62.33,0,0,0-13.29.92A.29.29,0,0,1,348.55,371.84Z" style="fill:#263238"></path><path d="M346,374.57c4-2,9.45-2.81,13.57-.69.16.08,0,.31-.11.3a62.33,62.33,0,0,0-13.29.93A.29.29,0,0,1,346,374.57Z" style="fill:#263238"></path><path d="M343.43,377.3c4-2,9.45-2.82,13.57-.69.16.08,0,.31-.11.3a62.46,62.46,0,0,0-13.3.92A.28.28,0,0,1,343.43,377.3Z" style="fill:#263238"></path><path d="M340.87,380c4-2,9.45-2.81,13.57-.69.16.09,0,.31-.11.31a61.82,61.82,0,0,0-13.3.92A.29.29,0,0,1,340.87,380Z" style="fill:#263238"></path><path d="M361.21,274.61c.4,11.57,30.21,73.25,30.21,73.25L348.47,367s-35.24-68.37-32.31-94c2.5-21.72,41.48-47.44,65.92-73.21h36.34c-13.55,28.76-54.08,63.26-57.08,73.38a4.57,4.57,0,0,0-.13,1.42Z" style="fill:#37474f"></path><path d="M348.82,358.58c7-3.36,5-2.49,12.06-5.77,3.46-1.61,20.86-9.73,24.34-10.7a.08.08,0,0,1,.06.14c-3,2-20.59,9.73-24.08,11.27-7.14,3.16-5.12,2.18-12.29,5.26A.11.11,0,1,1,348.82,358.58Z" style="fill:#263238"></path><path d="M409.46,205.85a372.75,372.75,0,0,1-35.81,46.23c-3.22,3.52-6.53,6.93-9.84,10.35-2.81,2.89-5.66,6.1-6.36,10.21-.77,4.58,1,9.14,2.44,13.4,1.57,4.7,3.15,9.4,4.82,14.07,1.8,5,3.7,10,5.85,14.92,1.09,2.51,7.75,14.81,9,17.26.6,1.22,1.23,2.44,1.87,3.65.32.6,2.59,4.76,2.92,5.36.1.2.39.45.12-.06-.62-1.14-3.15-5.85-3.73-7-2.28-4.56-9.8-19.07-11.69-23.8s-3.68-9.65-5.36-14.53-3.38-9.65-4.81-14.55a20.47,20.47,0,0,1-1-7.76,13.93,13.93,0,0,1,2.92-6.91c2.87-3.84,6.62-7.1,9.89-10.6Q380.8,245.2,390,233.47a323.53,323.53,0,0,0,19.56-27.54C409.63,205.85,409.51,205.78,409.46,205.85Z" style="fill:#263238"></path><path d="M360.72,465.34c2.37.72,69.62-1,72.14-2.74,1-.64,1.28-10.44,1.32-22.31,0-2.56,0-5.21,0-7.89-.12-17.45-.65-35.95-.65-35.95l-45,1.06,1.89,35.92.41,7.88s-25.45,12.2-28,14.35S358.35,464.62,360.72,465.34Z" style="fill:#ad6359"></path><path d="M360.72,465.34c2.37.72,69.62-1,72.14-2.74,1.17-.78,1.39-15.1,1.3-30.2l-43.75,1,.41,7.88s-25.45,12.2-28,14.35S358.35,464.62,360.72,465.34Z" style="fill:#fff"></path><path d="M360.72,465.34c2.37.72,69.62-1,72.14-2.74,1-.64,1.28-10.44,1.32-22.31l-43.36,1s-25.45,12.2-28,14.35S358.35,464.62,360.72,465.34Z" style="fill:#C53F3F"></path><path d="M361.61,462.62c11.27-.57,56.76-1.82,67.94-1.54.09,0,.1.07,0,.08-11.16.81-56.66,1.69-67.94,1.65C361.38,462.81,361.38,462.64,361.61,462.62Z" style="fill:#263238"></path><path d="M367.07,453.12a9,9,0,0,1,6.81,2.58,8.76,8.76,0,0,1,2.68,5.95c0,.07-.12.07-.14,0a10.47,10.47,0,0,0-9.35-8.39A.07.07,0,1,1,367.07,453.12Z" style="fill:#263238"></path><path d="M386.47,442.55c4.51-.18,9.79,1.27,12.69,4.89.11.14-.09.29-.23.23a62.33,62.33,0,0,0-12.52-4.57A.28.28,0,0,1,386.47,442.55Z" style="fill:#263238"></path><path d="M383,444c4.51-.18,9.78,1.27,12.68,4.89.11.14-.09.29-.22.23A62,62,0,0,0,383,444.56.29.29,0,0,1,383,444Z" style="fill:#263238"></path><path d="M379.58,445.45c4.51-.18,9.78,1.27,12.68,4.89.12.14-.09.29-.22.23A62.42,62.42,0,0,0,379.51,446,.28.28,0,0,1,379.58,445.45Z" style="fill:#263238"></path><path d="M376.13,446.9c4.51-.18,9.78,1.27,12.69,4.89.11.14-.09.29-.23.23a62.33,62.33,0,0,0-12.52-4.57A.28.28,0,0,1,376.13,446.9Z" style="fill:#263238"></path><path d="M386.44,440.55l51.36-.64s-12.17-191.14-8.5-197.77c5.63-10.17,9.52-23.92,1.73-42.44H391.28s2.11,19.77,1.92,20.58C381,273.59,386.44,440.55,386.44,440.55Z" style="fill:#37474f"></path><path d="M388.85,431.63c10.22-.76,42.15-1,45.55-.52.07,0,.07.14,0,.15-3.37.65-20.17,1-45.54.58A.11.11,0,0,1,388.85,431.63Z" style="fill:#263238"></path><path d="M390.56,202.27c.4,5,.2,13.63,3.11,13.76s2.4-10.38,2.48-12.79c.08-2.19.83-1.89.91.69.22,7,0,13.19-3.68,12.9s-3.69-11.15-3.6-13.63C389.83,201.93,390.44,200.69,390.56,202.27Z" style="fill:#263238"></path><path d="M393.48,216.36a21.59,21.59,0,0,1-.11,5.3c-.05.15-.61,0-.67-.08-.34-.73-.07-4.17-.16-5.1A.47.47,0,0,1,393.48,216.36Z" style="fill:#263238"></path><path d="M392.25,222.56c-1.24,4.4-2.51,12.82-2.21,15,0,.2.32.26.36.05.4-2.36,2.16-13.7,2.34-14.9S392.59,221.33,392.25,222.56Z" style="fill:#263238"></path><path d="M399.89,226a14.62,14.62,0,0,0-1.85-1.57c-.65-.51-1.3-1-2-1.49-1.38-1-2.81-1.86-4.25-2.72s-2.88-1.62-4.35-2.36-3.18-1.37-4.72-2.15c-.09,0-.17.09-.09.14,1.47.81,2.83,1.82,4.25,2.71s2.84,1.8,4.27,2.69,2.77,1.77,4.18,2.63c.73.45,1.47.88,2.22,1.32a18.73,18.73,0,0,0,2.1,1.17C399.89,226.49,400,226.18,399.89,226Z" style="fill:#263238"></path><path d="M428.91,395.55q-1-10.68-1.78-21.36-1.62-21.37-2.59-42.79t-1.29-42.84q-.15-10.72-.15-21.44c0-7.09-.05-16.55.32-23.63.19-3.6,6.53-6.38,7.82-16.86a39.94,39.94,0,0,0-1.39-17.81,37.92,37.92,0,0,0-1.59-4.11c0-.1-.17,0-.13.07a39.17,39.17,0,0,1,3.07,18.7,32,32,0,0,1-2,9.41c-1.71,4.22-5.89,7.66-6.11,9.9-.33,3.36-.38,6.26-.43,9.62q-.06,5.26-.09,10.51-.06,10.71.06,21.43.22,21.33,1.12,42.64t2.45,42.59c1,14.18,2.31,39.81,3.79,54,.17,1.62.36,3.23.6,4.85,0,.17.32.13.31-.05C430.46,421.23,429.56,402.65,428.91,395.55Z" style="fill:#263238"></path><path d="M342.73,109l8.62,27.48a1,1,0,0,1-.83,1.54l-14.39.82a2.34,2.34,0,0,1-2.08-1.37L325.43,110c-.34-.81,0-1.49.83-1.54l14.39-.82A2.3,2.3,0,0,1,342.73,109Z" style="fill:#37474f"></path><path d="M341,109.05l8.62,27.49a1,1,0,0,1-.84,1.53l-14.39.82a2.32,2.32,0,0,1-2.08-1.37L323.72,110c-.34-.8,0-1.49.83-1.54l14.39-.82A2.34,2.34,0,0,1,341,109.05Z" style="fill:#455a64"></path><path d="M337.15,110.55a1.23,1.23,0,0,0,1.32,1.12,1.22,1.22,0,1,0-1.32-1.12Z" style="fill:#263238"></path><path d="M391.53,148.54c-7,17.87-23.78,41.59-31.33,42.19-3.6.28-10,1.57-15-2.25-10.89-8.34-20.64-25-23.05-34.79-.86-3.47,15.73-12.21,18.44-9.51,6.35,6.31,14.09,19,15.13,18.85,3.85-.55,18.15-14.15,28.13-23.72C396,127.69,394.32,141.42,391.53,148.54Z" style="fill:#ad6359"></path><path d="M320.57,135.57c1.34-7.25,2.79-8.91.67-15.63-1.39-4.4.83-7.18,4.24-3.8,5.59,5.54,5.82,15.26,4.94,18.65Z" style="fill:#ad6359"></path><path d="M323.23,156.7s-3.84-9.73-3.18-17.6c.45-5.44,2.77-17.16,17.45-24.24,3.48-1.68,9.63-1.6,4.94,3.21-3.33,3.41-6.48,4.57-8.05,6.91,0,0,7.81,1,9.36,4.58a71.63,71.63,0,0,1,3.37,9.57,15.16,15.16,0,0,1-1.73.8s1.34,3.37-.89,8.43Z" style="fill:#ad6359"></path><path d="M321.31,134c2.06-2,6.49-6.14,11.29-8.27,5.33-2.37,16.24-5.49,17.95-1.54,1.25,2.9-2.81,4.46-2.81,4.46s4.78-.34,5.34,2.53c.51,2.61-2.7,3.63-2.7,3.63s2.93.29,2.94,2.9c0,3.14-6.15,2-8.89,5.2C343.81,143.61,321.31,134,321.31,134Z" style="fill:#ad6359"></path><path d="M334.16,131.76a23.27,23.27,0,0,1,13.49-3.2c.11,0,.17.11.06.12a57.44,57.44,0,0,0-13.53,3.13S334.14,131.78,334.16,131.76Z" style="fill:#263238"></path><path d="M336.71,137.08a26.19,26.19,0,0,1,13.65-2.4c.12,0,.17.12.05.13a61,61,0,0,0-13.68,2.32S336.68,137.09,336.71,137.08Z" style="fill:#263238"></path><path d="M322.5,160.94s15.86,26.72,24.2,29.38,13.18,1.62,16.18,1a8.21,8.21,0,0,0,3.1-1.76c7.81-6.4,21.12-28.1,26.31-40.14,3.89-9,2.87-16.94-3.74-13.94a22.94,22.94,0,0,0-6,4.42c-11.77,11.28-25.58,22.19-26.29,21.88s-8.64-11.19-8.64-11.19Z" style="fill:#C53F3F"></path><path d="M326.3,165.74c.9-.57,9.45-4.57,11.33-5.4s9.51-4.3,11.52-5a.07.07,0,1,1,.06.13c-1.84,1.06-9.53,4.57-11.43,5.46s-10.44,4.65-11.43,4.94C326.26,165.9,326.24,165.78,326.3,165.74Z" style="fill:#263238"></path><path d="M362.39,157.46a129.36,129.36,0,0,0,18.35,13.13c1.84-2.92,3.64-5.91,5.27-8.83a112.68,112.68,0,0,1-15.72-10.83C367.35,153.44,364.64,155.67,362.39,157.46Z" style="fill:#ebebeb"></path><path d="M345,189.5a7.89,7.89,0,0,0,1.73.82c8.34,2.66,13.18,1.62,16.18,1a8.11,8.11,0,0,0,3.09-1.76c7.82-6.4,21.13-28.1,26.32-40.14,2-4.65,2.7-9,2-11.71C381.66,150.79,358,175.88,345,189.5Z" style="opacity:0.1"></path><path d="M374.48,205.7c1.46,1.3,63.39,4.25,63.67,3.83s-14.56-66.72-36.94-75.66c-3.54-1.42-13-.82-14,.5C378.36,145.38,373.56,204.88,374.48,205.7Z" style="fill:#C53F3F"></path><path d="M390.93,143.52c3.47.29,8.46-5.71,10.11-10.21.11-.31-.78-3.25-1.69-6.87-.55-2.2-1.1-4.66-1.45-6.94l-13.79,5.63a36.72,36.72,0,0,1,2.7,8.56,5.29,5.29,0,0,1,.05,1,.74.74,0,0,0,0,.15C386.84,136.63,387.57,143.24,390.93,143.52Z" style="fill:#ad6359"></path><path d="M384.1,125.13a36.49,36.49,0,0,1,2.71,8.57,4.37,4.37,0,0,1,0,1,.86.86,0,0,0,0,.15,7.17,7.17,0,0,0,1.48-.14c8.31-1.45,9.1-12.12,9.16-15Z" style="fill:#263238"></path><path d="M399.57,103.26c1.51,5.15-1.36,20-5.05,23.23-5.34,4.73-14,5.1-18-1.31-3.89-6.21.2-25.44,4.31-28.4C386.87,92.41,397.34,95.65,399.57,103.26Z" style="fill:#ad6359"></path><path d="M400.35,117.39c-4.09-.23-5.61-5.33-4.17-9.11,0,0-11,.09-10.41-8.64a8.55,8.55,0,0,1-7.5,3l-1.61,3c-1.07-.46-1.85-3.75,1.17-5.88a10.41,10.41,0,0,1,4.23-6.5,6,6,0,0,1,6.46-.09,9,9,0,0,1,6.71-.8,7.67,7.67,0,0,1,5.09,4.84s5.22,1.69,5.66,5.6a7.92,7.92,0,0,1-1.84,6.21s1.15,1.66.07,4.82C403.51,115.93,401.58,117.45,400.35,117.39Z" style="fill:#263238"></path><path d="M386.1,98.9a10.09,10.09,0,0,0-.28,2.11,8.67,8.67,0,0,0,.13,2.1,5.52,5.52,0,0,0,2.11,3.42,9,9,0,0,0,3.86,1.5c.7.06,1.4.18,2.11.21s1.43,0,2.15,0c-.71.09-1.43.14-2.15.2s-1.44,0-2.16-.07a8.81,8.81,0,0,1-4.11-1.48,5.76,5.76,0,0,1-2.19-3.76A8.85,8.85,0,0,1,386.1,98.9Z" style="fill:#263238"></path><path d="M400.32,97.27a10.12,10.12,0,0,1,3.88,1.36,6,6,0,0,1,2.66,3.18,6.52,6.52,0,0,1,.26,2.09,6.05,6.05,0,0,1-.36,2.07,5.6,5.6,0,0,1-2.62,3.11,6.15,6.15,0,0,0,2.25-3.23,6.83,6.83,0,0,0,0-3.88,5.11,5.11,0,0,0-.92-1.7A8,8,0,0,0,404,99,12.89,12.89,0,0,0,400.32,97.27Z" style="fill:#263238"></path><path d="M388.52,93.23a10,10,0,0,0-3.1-1,6.14,6.14,0,0,0-3.13.29,6.29,6.29,0,0,0-2.52,1.89,11.38,11.38,0,0,0-1.66,2.8,8.16,8.16,0,0,1,1.36-3A6,6,0,0,1,382.11,92a5.91,5.91,0,0,1,3.38-.2A7.63,7.63,0,0,1,388.52,93.23Z" style="fill:#263238"></path><path d="M379.91,103.21a11.23,11.23,0,0,0,3.5-1.35,6.92,6.92,0,0,0,1.43-1.16A8.69,8.69,0,0,0,386,99.17a4.79,4.79,0,0,1-.81,1.78,5.23,5.23,0,0,1-1.47,1.34,6,6,0,0,1-1.82.75A5.52,5.52,0,0,1,379.91,103.21Z" style="fill:#263238"></path><path d="M384.64,112.35s.07.07.06.11c-.25,1-.36,2.14.46,2.66,0,0,0,.06,0,0C384.08,114.78,384.25,113.24,384.64,112.35Z" style="fill:#263238"></path><path d="M385.74,111.51c1.61.22,1.05,3.43-.44,3.23S384.39,111.33,385.74,111.51Z" style="fill:#263238"></path><path d="M378.81,111.32s-.09,0-.1.07c-.14,1-.47,2.12-1.43,2.29,0,0,0,.06,0,.06C378.41,113.78,378.83,112.29,378.81,111.32Z" style="fill:#263238"></path><path d="M378.1,110.13c-1.58-.41-2.26,2.78-.8,3.15S379.42,110.46,378.1,110.13Z" style="fill:#263238"></path><path d="M387.27,109a12.14,12.14,0,0,1-1.17-.66,2.07,2.07,0,0,1-1.06-.89.67.67,0,0,1,.25-.8,1.69,1.69,0,0,1,1.73.12,2.48,2.48,0,0,1,1.23,1.32A.73.73,0,0,1,387.27,109Z" style="fill:#263238"></path><path d="M377,109a12,12,0,0,0,1.34-.07,2.2,2.2,0,0,0,1.35-.33.71.71,0,0,0,.12-.84,1.71,1.71,0,0,0-1.6-.65,2.51,2.51,0,0,0-1.69.64A.73.73,0,0,0,377,109Z" style="fill:#263238"></path><path d="M384.15,121.32c-.23.24-.47.57-.83.61a2.74,2.74,0,0,1-1.09-.24s-.07,0-.05.06a1.38,1.38,0,0,0,1.3.52,1.08,1.08,0,0,0,.77-.91C384.26,121.3,384.19,121.28,384.15,121.32Z" style="fill:#263238"></path><path d="M383.4,118.24a3.47,3.47,0,0,1-2.52,1.11,4.29,4.29,0,0,1-1.23-.16,3.73,3.73,0,0,1-.44-.14.25.25,0,0,1-.16-.26h0l.44-2.12c-.3.09-1.84.49-1.75.09a51.76,51.76,0,0,1,3.11-10,.1.1,0,0,1,.18.06c-.63,3.18-1.8,6.22-2.48,9.4a6,6,0,0,1,1.68-.2c.06,0-.6,2.57-.6,2.6a4.73,4.73,0,0,0,3.69-.48C383.41,118.09,383.48,118.17,383.4,118.24Z" style="fill:#263238"></path><path d="M375.1,116.42c-1.79-.29-2.89-2.74-2.45-5.45s2.27-4.69,4.07-4.39,2.89,2.74,2.45,5.46S376.9,116.72,375.1,116.42Zm1.51-9.18c-1.43-.24-2.91,1.49-3.3,3.84s.47,4.45,1.9,4.68,2.91-1.48,3.3-3.83S378,107.48,376.61,107.24Z" style="fill:#C53F3F"></path><path d="M384.62,118.24a5,5,0,1,1,5.41-4.17A4.83,4.83,0,0,1,384.62,118.24Zm1.51-9.19a4.34,4.34,0,1,0,3.24,4.91A4.17,4.17,0,0,0,386.13,109.05Z" style="fill:#C53F3F"></path><path d="M381.17,112.09c-1.51-1-2.36-.44-2.37-.44l-.19-.5s1.06-.77,2.79.41Z" style="fill:#C53F3F"></path><path d="M389.61,113.42l0-.59c.39,0,9.35.68,10.3.87s2.93,2.1,3.15,2.31l-.41.43a10.88,10.88,0,0,0-2.82-2.16h0C399.1,114.13,392.83,113.65,389.61,113.42Z" style="fill:#C53F3F"></path><path d="M395.67,116.21s3.5-4.7,5.64-3.43-.6,8.13-3.18,9a2.61,2.61,0,0,1-3.44-1.51Z" style="fill:#ad6359"></path><path d="M400.48,114.73s0,0,0,.07c-1.82.67-2.81,2.3-3.52,4a1.43,1.43,0,0,1,2.15-.33c.05,0,0,.11-.05.1a1.59,1.59,0,0,0-1.77.5,7.89,7.89,0,0,0-.89,1.4c-.09.16-.37.06-.31-.12l0,0C396.14,118,398,114.88,400.48,114.73Z" style="fill:#263238"></path><path d="M386,139.25s0,0,0,0c-.18,2.84-.41,9.43,4,9a9.32,9.32,0,0,0,4.8-2.37,24.89,24.89,0,0,0,3.79-3.82,36.2,36.2,0,0,0,3.53-4.92c0-.07.16,0,.11.08-1.06,1.73-1.94,3.54-3.17,5.17a22.2,22.2,0,0,1-4.09,4.24A9.42,9.42,0,0,1,390,149a3.59,3.59,0,0,1-3.65-2.72A15.8,15.8,0,0,1,386,139.25Z" style="fill:#263238"></path><path d="M387,134.49l3.45,8.4,10.39-10.74,3,3.4s-10.12,17-10.19,16.25l-3.52-7.24-5,5.09.32-12.69Z" style="fill:#ebebeb"></path><path d="M384.94,143.37c.12-2.09.19-4.21.41-6.29,0-.07.12-.11.14,0,.43,2-.08,10-.05,11.94l0,0c.21-.22,4.61-4.48,4.66-4.41.76,1.15,3.34,6.42,3.52,6.9,1.6-2.7,8.4-13.36,10.3-15.91a.07.07,0,1,1,.13.07c-1.41,2.85-10.2,16.91-10.32,16.87a80.61,80.61,0,0,1-3.69-7.65c-.74.93-5.19,5.73-5.2,5.42A66,66,0,0,1,384.94,143.37Z" style="fill:#263238"></path><path d="M404.87,148c5.07,17.29,16.92,36.69,24.54,42,4.64,3.25,18.86,2.47,19-6.76S416.52,145.9,411.62,141C406.41,135.69,400.29,132.4,404.87,148Z" style="fill:#ad6359"></path><path d="M404.07,148.46c5.07,17.28,17.72,36.22,25.34,41.56,4.64,3.25,18.86,2.47,19-6.76S417.11,145.13,412,140.4C406,134.8,399.49,132.86,404.07,148.46Z" style="fill:#C53F3F"></path><path d="M409.11,161.54c1.46,3.1,3.06,6.12,4.74,9a127.62,127.62,0,0,0,15.75-13.05c-2.48-2.57-5-5-7.26-7.28A114.22,114.22,0,0,1,409.11,161.54Z" style="fill:#ebebeb"></path><path d="M441.17,190.66a18.72,18.72,0,0,1-5.78.36,15.51,15.51,0,0,1-5.45-1.6c-3.59-1.8-6.12-5-8.38-8.28-2.48-3.52-4.82-7.15-7-10.86s-4.25-7.52-6.24-11.35c-1-1.93-1.93-3.9-2.89-5.85s-1.87-3.89-2.72-5.87c-.22-.5-.42-1-.63-1.5,0-.05-.09,0-.07,0,.78,2.06,1.52,4.14,2.35,6.17.11.27.23.53.34.79-.83-1.52-1.67-3-2.55-4.53-.05-.09-.17,0-.13.09.79,1.56,1.62,3.1,2.46,4.63.41.76.83,1.51,1.25,2.26.41.94.84,1.88,1.27,2.81q2.8,6,6.15,11.71t7.1,11.15c2.31,3.34,4.79,6.77,8.34,8.88a14.93,14.93,0,0,0,11.31,1.61,10.39,10.39,0,0,0,1.36-.47A.09.09,0,0,0,441.17,190.66Z" style="fill:#263238"></path><path d="M429.44,122.77c-2.89-6-7.49-14.25-10.33-15.37s-13.63-4.88-16.39-5-12.31,3.34-14,5.17c-1.32,1.46,1.3,4.6,6.81,3.81,5.16-.73,6.36-1.16,7.86-1s6.18,3.48,5.91,5.7c-.16,1.3-3,3.7-5.4,3.43s-3.9-2.48-6.87-3.65-7.05.39-6.93,1.59,1.66,1.28,5,4.41c2.15,2,3.86,6.16,8.31,9.38a76.9,76.9,0,0,1,6.75,6.39Z" style="fill:#ad6359"></path><path d="M419.11,107.4c-3-2.5-9.95-6.53-15.65-6.86-3.85-.22-13.82,9.31-12.76,11.46s3.09,1.51,6,.2c1-.48,6.14-4.39,7.51-3.49,2,1.28,5.65,6.64,5.65,6.64Z" style="fill:#ad6359"></path><path d="M390.71,111c.69-2.88,3.49-5.2,6.35-7.23.05,0,.1,0,.05.06-.73.52-5.16,4.58-6.35,7.2C390.75,111.08,390.71,111.05,390.71,111Z" style="fill:#263238"></path><path d="M419.11,107.4c-3-2.5-9.95-6.53-15.65-6.86-3.85-.22-10.84,10.13-9.78,12.28s4,1.4,6.87-.74c.92-.69,3.61-4.25,5-3.35,2,1.28,6.78,4.49,6.78,4.49Z" style="fill:#ad6359"></path><path d="M409.48,111.19c-.48-.4-.65-.54-1.14-.92s-1-.76-1.49-1.11a4.88,4.88,0,0,0-1.41-.78,2.45,2.45,0,0,0-1.51.18,8.37,8.37,0,0,0-2.63,2.33,10.06,10.06,0,0,1-4.45,3,3.34,3.34,0,0,1-1.44.06,2.18,2.18,0,0,1-1-.37c-1.11-1-.66-2.7-.05-4a22.65,22.65,0,0,1,4.92-6.31c.47-.45.95-.88,1.43-1.32a5.11,5.11,0,0,1,1.84-1.22c1.16-.38,3.44.19,4.14.36.05,0,.06-.08,0-.09-.85-.22-3.09-1.1-4.93-.4a6.33,6.33,0,0,0-1.74,1.27c-.56.5-1.11,1-1.65,1.53a27.06,27.06,0,0,0-2.89,3.25,11.72,11.72,0,0,0-2,3.69,3.41,3.41,0,0,0,.86,3.41,3,3,0,0,0,2.47.45,5.91,5.91,0,0,0,1.47-.49,23.24,23.24,0,0,0,2.91-2c.89-.73,1.59-1.71,2.53-2.36a2,2,0,0,1,1.55-.38,5.36,5.36,0,0,1,1.46.67,16.82,16.82,0,0,1,2.61,1.64C409.54,111.47,409.68,111.35,409.48,111.19Z" style="fill:#263238"></path><path d="M421.47,109.67c-1.21-1.26-4.42-7-6.22-8.54s-9.32-6.32-11.77-5.22c-3.07,1.37,2.09,6.06,4.52,7.89s3.43,6,3.43,6Z" style="fill:#ad6359"></path><path d="M404.41,100.62a29.09,29.09,0,0,1,2.4,1.87,19.56,19.56,0,0,1,2.18,1.89,8.46,8.46,0,0,1,1.46,2.43c.18.43.34.86.48,1.31s.28,1,.44,1.47c0,0-.06.08-.08,0a20.09,20.09,0,0,0-1.19-2.53,11.72,11.72,0,0,0-1.64-2.38c-1.28-1.43-2.85-2.57-4.14-4A.07.07,0,0,1,404.41,100.62Z" style="fill:#263238"></path><path d="M405.1,119.45a4.19,4.19,0,0,1-3-.83c-.8-.53-1.57-1.11-2.37-1.64a10.2,10.2,0,0,0-2.54-1.31,11.75,11.75,0,0,0-3.18-.34,6.25,6.25,0,0,0-3,.62c-.75.41-1.52,1.26-1.05,2.18a4.1,4.1,0,0,0,.93,1.06A11.1,11.1,0,0,0,392,120c.8.51,1.63,1,2.38,1.53a14.79,14.79,0,0,1,2.47,2.87c.28.37,2.08,2.9,2.77,3.75a14.52,14.52,0,0,0,1.9,2,21.87,21.87,0,0,0,2.13,1.55,13.17,13.17,0,0,1,2.24,1.78s.07,0,.05-.05a11.58,11.58,0,0,0-3.77-3.22c-1.78-1.17-5.94-7.47-6.68-8.31-1.22-1.41-3-2-4.37-3.22-.32-.28-.8-.67-.82-1.14a1.31,1.31,0,0,1,.73-1A5.25,5.25,0,0,1,394,116a13.62,13.62,0,0,1,3.05.32,10.36,10.36,0,0,1,2.49,1.13c.89.54,1.75,1.11,2.67,1.58a4.14,4.14,0,0,0,2.93.48C405.18,119.51,405.15,119.44,405.1,119.45Z" style="fill:#263238"></path><path d="M390.33,106.71c.66-.37,1.32-.77,2-1.13,0,0,0,0,0,0-.8.38-1.63.7-2.44,1.06a2.61,2.61,0,0,0-1.53,1.4,1.94,1.94,0,0,0,.49,1.86,5.14,5.14,0,0,0,1.88,1.12s.06,0,0-.06c-1-.51-2.63-1.58-1.9-3A3.57,3.57,0,0,1,390.33,106.71Z" style="fill:#263238"></path><path d="M394,113.15a4.31,4.31,0,0,1-2.36-.28,1.76,1.76,0,0,1-.74-.69,1.89,1.89,0,0,1-.18-.52.86.86,0,0,1,0-.57s-.05-.07-.05,0a2.83,2.83,0,0,1-.11.31,1.26,1.26,0,0,0-.05.28,1.45,1.45,0,0,0,.08.54,1.72,1.72,0,0,0,.75.91,2.93,2.93,0,0,0,2.63.1S394.07,113.14,394,113.15Z" style="fill:#263238"></path><path d="M408.93,136c2.34,6.91,19.27,45.28,23.7,50.33s14.47,5.62,16.71-4.1S432.45,128.76,429,121.79C427,117.91,408.08,133.52,408.93,136Z" style="fill:#ad6359"></path><path d="M405.94,142.7l26.7-17.61s15.74,37,17.21,54.12c.8,9.41-10.2,17.11-19.86,4.88S405.94,142.7,405.94,142.7Z" style="fill:#C53F3F"></path><path d="M410.2,147.64c3.93-2.25,19.64-12,22.87-14.38.22-.16.16-.35-.1-.21-12,6.45-19.14,12-22.87,14.43C410,147.54,410.1,147.7,410.2,147.64Z" style="fill:#263238"></path><path d="M420.81,169.7c-3.4-5.58-6.68-11.23-9.67-17q-1.26-2.44-2.46-4.9c-.78-1.58-1.56-3.16-2.27-4.78.59-.46,3.16-2.35,3.43-2.64a.12.12,0,0,0-.13-.18,47.09,47.09,0,0,0-4,2.65c-.09.07,1.41,3.21,2.1,4.7s1.4,3,2.12,4.48q2.16,4.39,4.53,8.68c1.71,3.08,3.48,6.12,5.34,9.1C421.43,172.33,425.18,176.89,420.81,169.7Z" style="fill:#263238"></path></g></svg>